<mxfile host="app.diagrams.net" modified="2024-05-19T16:05:44.389Z" agent="Mozilla/5.0 (Windows NT 10.0; Win64; x64) AppleWebKit/537.36 (KHTML, like Gecko) Chrome/124.0.0.0 Safari/537.36" etag="WtkC0G-iutoc-8r3Tgls" version="24.4.4" type="github">
  <diagram name="第 1 页" id="LxelXvVXPiTQqQ4sb4Tv">
    <mxGraphModel dx="1345" dy="1023" grid="1" gridSize="10" guides="1" tooltips="1" connect="1" arrows="1" fold="1" page="1" pageScale="1" pageWidth="827" pageHeight="1169" math="0" shadow="0">
      <root>
        <mxCell id="0" />
        <mxCell id="1" parent="0" />
        <mxCell id="KuxwwfLe9ZElaLR2S34V-271" value="" style="rounded=0;whiteSpace=wrap;html=1;fontFamily=Helvetica;fontSize=11;fontColor=default;labelBackgroundColor=default;" parent="1" vertex="1">
          <mxGeometry x="40" y="790" width="295" height="170" as="geometry" />
        </mxCell>
        <mxCell id="KuxwwfLe9ZElaLR2S34V-270" value="" style="rounded=0;whiteSpace=wrap;html=1;fontFamily=Helvetica;fontSize=11;fontColor=default;labelBackgroundColor=default;" parent="1" vertex="1">
          <mxGeometry x="40" y="445" width="520" height="210" as="geometry" />
        </mxCell>
        <mxCell id="KuxwwfLe9ZElaLR2S34V-267" value="" style="rounded=0;whiteSpace=wrap;html=1;fontFamily=Helvetica;fontSize=11;fontColor=default;labelBackgroundColor=default;" parent="1" vertex="1">
          <mxGeometry x="30" y="180" width="550" height="210" as="geometry" />
        </mxCell>
        <mxCell id="KuxwwfLe9ZElaLR2S34V-265" value="" style="rounded=1;whiteSpace=wrap;html=1;fontFamily=Helvetica;fontSize=11;fontColor=default;labelBackgroundColor=default;" parent="1" vertex="1">
          <mxGeometry x="45" y="61.25" width="220" height="112.5" as="geometry" />
        </mxCell>
        <mxCell id="KuxwwfLe9ZElaLR2S34V-13" style="edgeStyle=none;rounded=0;orthogonalLoop=1;jettySize=auto;html=1;entryX=0.5;entryY=0;entryDx=0;entryDy=0;strokeColor=default;align=center;verticalAlign=middle;fontFamily=Helvetica;fontSize=11;fontColor=default;labelBackgroundColor=default;endArrow=none;endFill=0;" parent="1" source="KuxwwfLe9ZElaLR2S34V-1" target="KuxwwfLe9ZElaLR2S34V-6" edge="1">
          <mxGeometry relative="1" as="geometry" />
        </mxCell>
        <mxCell id="KuxwwfLe9ZElaLR2S34V-14" style="edgeStyle=none;rounded=0;orthogonalLoop=1;jettySize=auto;html=1;entryX=0.5;entryY=0;entryDx=0;entryDy=0;strokeColor=default;align=center;verticalAlign=middle;fontFamily=Helvetica;fontSize=11;fontColor=default;labelBackgroundColor=default;endArrow=none;endFill=0;" parent="1" source="KuxwwfLe9ZElaLR2S34V-1" target="KuxwwfLe9ZElaLR2S34V-7" edge="1">
          <mxGeometry relative="1" as="geometry" />
        </mxCell>
        <mxCell id="rmCnp-xHdP0OK2ies1rB-6" style="rounded=0;orthogonalLoop=1;jettySize=auto;html=1;entryX=0;entryY=0.667;entryDx=0;entryDy=0;endArrow=openThin;endFill=0;entryPerimeter=0;strokeColor=#CC0000;" parent="1" source="KuxwwfLe9ZElaLR2S34V-1" target="KuxwwfLe9ZElaLR2S34V-4" edge="1">
          <mxGeometry relative="1" as="geometry" />
        </mxCell>
        <mxCell id="rmCnp-xHdP0OK2ies1rB-10" style="edgeStyle=none;rounded=0;orthogonalLoop=1;jettySize=auto;html=1;entryX=0;entryY=0.5;entryDx=0;entryDy=0;endArrow=openThin;endFill=0;dashed=1;strokeColor=#CC0000;" parent="1" source="KuxwwfLe9ZElaLR2S34V-1" target="KuxwwfLe9ZElaLR2S34V-3" edge="1">
          <mxGeometry relative="1" as="geometry" />
        </mxCell>
        <mxCell id="KuxwwfLe9ZElaLR2S34V-1" value="2" style="ellipse;whiteSpace=wrap;html=1;aspect=fixed;fillColor=#FFB366;" parent="1" vertex="1">
          <mxGeometry x="115" y="110" width="15" height="15" as="geometry" />
        </mxCell>
        <mxCell id="KuxwwfLe9ZElaLR2S34V-12" style="edgeStyle=none;rounded=0;orthogonalLoop=1;jettySize=auto;html=1;entryX=1;entryY=0;entryDx=0;entryDy=0;strokeColor=default;align=center;verticalAlign=middle;fontFamily=Helvetica;fontSize=11;fontColor=default;labelBackgroundColor=default;endArrow=none;endFill=0;" parent="1" source="KuxwwfLe9ZElaLR2S34V-2" target="KuxwwfLe9ZElaLR2S34V-1" edge="1">
          <mxGeometry relative="1" as="geometry" />
        </mxCell>
        <mxCell id="KuxwwfLe9ZElaLR2S34V-17" style="edgeStyle=none;rounded=0;orthogonalLoop=1;jettySize=auto;html=1;entryX=0.5;entryY=0;entryDx=0;entryDy=0;strokeColor=default;align=center;verticalAlign=middle;fontFamily=Helvetica;fontSize=11;fontColor=default;labelBackgroundColor=default;endArrow=none;endFill=0;" parent="1" source="KuxwwfLe9ZElaLR2S34V-2" target="KuxwwfLe9ZElaLR2S34V-3" edge="1">
          <mxGeometry relative="1" as="geometry" />
        </mxCell>
        <mxCell id="KuxwwfLe9ZElaLR2S34V-2" value="4" style="ellipse;whiteSpace=wrap;html=1;aspect=fixed;" parent="1" vertex="1">
          <mxGeometry x="140" y="70" width="15" height="15" as="geometry" />
        </mxCell>
        <mxCell id="KuxwwfLe9ZElaLR2S34V-21" style="edgeStyle=none;rounded=0;orthogonalLoop=1;jettySize=auto;html=1;entryX=0.5;entryY=0;entryDx=0;entryDy=0;strokeColor=default;align=center;verticalAlign=middle;fontFamily=Helvetica;fontSize=11;fontColor=default;labelBackgroundColor=default;endArrow=none;endFill=0;" parent="1" source="KuxwwfLe9ZElaLR2S34V-3" target="KuxwwfLe9ZElaLR2S34V-8" edge="1">
          <mxGeometry relative="1" as="geometry" />
        </mxCell>
        <mxCell id="KuxwwfLe9ZElaLR2S34V-22" style="edgeStyle=none;rounded=0;orthogonalLoop=1;jettySize=auto;html=1;entryX=0;entryY=1;entryDx=0;entryDy=0;strokeColor=default;align=center;verticalAlign=middle;fontFamily=Helvetica;fontSize=11;fontColor=default;labelBackgroundColor=default;endArrow=none;endFill=0;" parent="1" source="KuxwwfLe9ZElaLR2S34V-3" target="KuxwwfLe9ZElaLR2S34V-9" edge="1">
          <mxGeometry relative="1" as="geometry" />
        </mxCell>
        <mxCell id="KuxwwfLe9ZElaLR2S34V-23" style="edgeStyle=none;rounded=0;orthogonalLoop=1;jettySize=auto;html=1;entryX=1;entryY=0;entryDx=0;entryDy=0;strokeColor=default;align=center;verticalAlign=middle;fontFamily=Helvetica;fontSize=11;fontColor=default;labelBackgroundColor=default;endArrow=none;endFill=0;" parent="1" source="KuxwwfLe9ZElaLR2S34V-3" target="KuxwwfLe9ZElaLR2S34V-7" edge="1">
          <mxGeometry relative="1" as="geometry" />
        </mxCell>
        <mxCell id="KuxwwfLe9ZElaLR2S34V-3" value="7" style="ellipse;whiteSpace=wrap;html=1;aspect=fixed;fillColor=#f8cecc;strokeColor=#b85450;" parent="1" vertex="1">
          <mxGeometry x="175" y="95" width="15" height="15" as="geometry" />
        </mxCell>
        <mxCell id="KuxwwfLe9ZElaLR2S34V-18" style="edgeStyle=none;rounded=0;orthogonalLoop=1;jettySize=auto;html=1;entryX=1;entryY=0;entryDx=0;entryDy=0;strokeColor=default;align=center;verticalAlign=middle;fontFamily=Helvetica;fontSize=11;fontColor=default;labelBackgroundColor=default;endArrow=none;endFill=0;" parent="1" source="KuxwwfLe9ZElaLR2S34V-4" target="KuxwwfLe9ZElaLR2S34V-7" edge="1">
          <mxGeometry relative="1" as="geometry" />
        </mxCell>
        <mxCell id="KuxwwfLe9ZElaLR2S34V-20" style="edgeStyle=none;rounded=0;orthogonalLoop=1;jettySize=auto;html=1;entryX=0;entryY=0;entryDx=0;entryDy=0;strokeColor=default;align=center;verticalAlign=middle;fontFamily=Helvetica;fontSize=11;fontColor=default;labelBackgroundColor=default;endArrow=none;endFill=0;" parent="1" source="KuxwwfLe9ZElaLR2S34V-4" target="KuxwwfLe9ZElaLR2S34V-8" edge="1">
          <mxGeometry relative="1" as="geometry" />
        </mxCell>
        <mxCell id="rmCnp-xHdP0OK2ies1rB-8" style="rounded=0;orthogonalLoop=1;jettySize=auto;html=1;entryX=0;entryY=1;entryDx=0;entryDy=0;endArrow=openThin;endFill=0;strokeColor=#CC0000;" parent="1" source="KuxwwfLe9ZElaLR2S34V-4" target="KuxwwfLe9ZElaLR2S34V-3" edge="1">
          <mxGeometry relative="1" as="geometry" />
        </mxCell>
        <mxCell id="KuxwwfLe9ZElaLR2S34V-4" value="5" style="ellipse;whiteSpace=wrap;html=1;aspect=fixed;" parent="1" vertex="1">
          <mxGeometry x="145" y="120" width="15" height="15" as="geometry" />
        </mxCell>
        <mxCell id="KuxwwfLe9ZElaLR2S34V-11" style="edgeStyle=none;rounded=0;orthogonalLoop=1;jettySize=auto;html=1;strokeColor=default;align=center;verticalAlign=middle;fontFamily=Helvetica;fontSize=11;fontColor=default;labelBackgroundColor=default;endArrow=none;endFill=0;" parent="1" source="KuxwwfLe9ZElaLR2S34V-5" target="KuxwwfLe9ZElaLR2S34V-1" edge="1">
          <mxGeometry relative="1" as="geometry" />
        </mxCell>
        <mxCell id="KuxwwfLe9ZElaLR2S34V-5" value="1" style="ellipse;whiteSpace=wrap;html=1;aspect=fixed;" parent="1" vertex="1">
          <mxGeometry x="105" y="80" width="15" height="15" as="geometry" />
        </mxCell>
        <mxCell id="KuxwwfLe9ZElaLR2S34V-6" value="3" style="ellipse;whiteSpace=wrap;html=1;aspect=fixed;" parent="1" vertex="1">
          <mxGeometry x="100" y="135" width="15" height="15" as="geometry" />
        </mxCell>
        <mxCell id="KuxwwfLe9ZElaLR2S34V-19" style="edgeStyle=none;rounded=0;orthogonalLoop=1;jettySize=auto;html=1;entryX=0;entryY=0.5;entryDx=0;entryDy=0;strokeColor=default;align=center;verticalAlign=middle;fontFamily=Helvetica;fontSize=11;fontColor=default;labelBackgroundColor=default;endArrow=none;endFill=0;" parent="1" source="KuxwwfLe9ZElaLR2S34V-7" target="KuxwwfLe9ZElaLR2S34V-8" edge="1">
          <mxGeometry relative="1" as="geometry" />
        </mxCell>
        <mxCell id="KuxwwfLe9ZElaLR2S34V-7" value="6" style="ellipse;whiteSpace=wrap;html=1;aspect=fixed;" parent="1" vertex="1">
          <mxGeometry x="135" y="152.5" width="15" height="15" as="geometry" />
        </mxCell>
        <mxCell id="KuxwwfLe9ZElaLR2S34V-8" value="8" style="ellipse;whiteSpace=wrap;html=1;aspect=fixed;" parent="1" vertex="1">
          <mxGeometry x="205" y="140" width="15" height="15" as="geometry" />
        </mxCell>
        <mxCell id="KuxwwfLe9ZElaLR2S34V-9" value="9" style="ellipse;whiteSpace=wrap;html=1;aspect=fixed;" parent="1" vertex="1">
          <mxGeometry x="210" y="80" width="15" height="15" as="geometry" />
        </mxCell>
        <mxCell id="KuxwwfLe9ZElaLR2S34V-45" style="edgeStyle=none;rounded=0;orthogonalLoop=1;jettySize=auto;html=1;entryX=0.5;entryY=0;entryDx=0;entryDy=0;strokeColor=default;align=center;verticalAlign=middle;fontFamily=Helvetica;fontSize=11;fontColor=default;labelBackgroundColor=default;endArrow=none;endFill=0;opacity=50;" parent="1" source="KuxwwfLe9ZElaLR2S34V-24" target="KuxwwfLe9ZElaLR2S34V-32" edge="1">
          <mxGeometry relative="1" as="geometry" />
        </mxCell>
        <mxCell id="KuxwwfLe9ZElaLR2S34V-46" style="edgeStyle=none;rounded=0;orthogonalLoop=1;jettySize=auto;html=1;entryX=0.5;entryY=0;entryDx=0;entryDy=0;strokeColor=default;align=center;verticalAlign=middle;fontFamily=Helvetica;fontSize=11;fontColor=default;labelBackgroundColor=default;endArrow=none;endFill=0;opacity=50;" parent="1" source="KuxwwfLe9ZElaLR2S34V-24" target="KuxwwfLe9ZElaLR2S34V-33" edge="1">
          <mxGeometry relative="1" as="geometry" />
        </mxCell>
        <mxCell id="KuxwwfLe9ZElaLR2S34V-24" value="1" style="ellipse;whiteSpace=wrap;html=1;aspect=fixed;opacity=70;fillColor=#FFB570;" parent="1" vertex="1">
          <mxGeometry x="70" y="190" width="15" height="15" as="geometry" />
        </mxCell>
        <mxCell id="KuxwwfLe9ZElaLR2S34V-47" style="edgeStyle=none;rounded=0;orthogonalLoop=1;jettySize=auto;html=1;entryX=0.5;entryY=0;entryDx=0;entryDy=0;strokeColor=default;align=center;verticalAlign=middle;fontFamily=Helvetica;fontSize=11;fontColor=default;labelBackgroundColor=default;endArrow=none;endFill=0;opacity=50;" parent="1" source="KuxwwfLe9ZElaLR2S34V-25" target="KuxwwfLe9ZElaLR2S34V-32" edge="1">
          <mxGeometry relative="1" as="geometry" />
        </mxCell>
        <mxCell id="KuxwwfLe9ZElaLR2S34V-48" style="edgeStyle=none;rounded=0;orthogonalLoop=1;jettySize=auto;html=1;entryX=0.5;entryY=0;entryDx=0;entryDy=0;strokeColor=default;align=center;verticalAlign=middle;fontFamily=Helvetica;fontSize=11;fontColor=default;labelBackgroundColor=default;endArrow=none;endFill=0;opacity=50;" parent="1" source="KuxwwfLe9ZElaLR2S34V-25" target="KuxwwfLe9ZElaLR2S34V-33" edge="1">
          <mxGeometry relative="1" as="geometry" />
        </mxCell>
        <mxCell id="KuxwwfLe9ZElaLR2S34V-49" style="edgeStyle=none;rounded=0;orthogonalLoop=1;jettySize=auto;html=1;entryX=0;entryY=0;entryDx=0;entryDy=0;strokeColor=default;align=center;verticalAlign=middle;fontFamily=Helvetica;fontSize=11;fontColor=default;labelBackgroundColor=default;endArrow=none;endFill=0;opacity=50;" parent="1" source="KuxwwfLe9ZElaLR2S34V-25" target="KuxwwfLe9ZElaLR2S34V-34" edge="1">
          <mxGeometry relative="1" as="geometry" />
        </mxCell>
        <mxCell id="KuxwwfLe9ZElaLR2S34V-50" style="edgeStyle=none;rounded=0;orthogonalLoop=1;jettySize=auto;html=1;entryX=0.5;entryY=0;entryDx=0;entryDy=0;strokeColor=default;align=center;verticalAlign=middle;fontFamily=Helvetica;fontSize=11;fontColor=default;labelBackgroundColor=default;endArrow=none;endFill=0;opacity=50;" parent="1" source="KuxwwfLe9ZElaLR2S34V-25" target="KuxwwfLe9ZElaLR2S34V-35" edge="1">
          <mxGeometry relative="1" as="geometry" />
        </mxCell>
        <mxCell id="KuxwwfLe9ZElaLR2S34V-51" style="edgeStyle=none;rounded=0;orthogonalLoop=1;jettySize=auto;html=1;entryX=0;entryY=0;entryDx=0;entryDy=0;strokeColor=default;align=center;verticalAlign=middle;fontFamily=Helvetica;fontSize=11;fontColor=default;labelBackgroundColor=default;endArrow=none;endFill=0;opacity=50;" parent="1" source="KuxwwfLe9ZElaLR2S34V-25" target="KuxwwfLe9ZElaLR2S34V-36" edge="1">
          <mxGeometry relative="1" as="geometry" />
        </mxCell>
        <mxCell id="KuxwwfLe9ZElaLR2S34V-52" style="edgeStyle=none;rounded=0;orthogonalLoop=1;jettySize=auto;html=1;entryX=0;entryY=0;entryDx=0;entryDy=0;strokeColor=default;align=center;verticalAlign=middle;fontFamily=Helvetica;fontSize=11;fontColor=default;labelBackgroundColor=default;endArrow=none;endFill=0;opacity=50;" parent="1" source="KuxwwfLe9ZElaLR2S34V-25" target="KuxwwfLe9ZElaLR2S34V-37" edge="1">
          <mxGeometry relative="1" as="geometry" />
        </mxCell>
        <mxCell id="KuxwwfLe9ZElaLR2S34V-25" value="2" style="ellipse;whiteSpace=wrap;html=1;aspect=fixed;opacity=70;fillColor=#FFB570;" parent="1" vertex="1">
          <mxGeometry x="100" y="190" width="15" height="15" as="geometry" />
        </mxCell>
        <mxCell id="KuxwwfLe9ZElaLR2S34V-53" style="edgeStyle=none;rounded=0;orthogonalLoop=1;jettySize=auto;html=1;entryX=0.5;entryY=0;entryDx=0;entryDy=0;strokeColor=default;align=center;verticalAlign=middle;fontFamily=Helvetica;fontSize=11;fontColor=default;labelBackgroundColor=default;endArrow=none;endFill=0;opacity=50;" parent="1" source="KuxwwfLe9ZElaLR2S34V-26" target="KuxwwfLe9ZElaLR2S34V-33" edge="1">
          <mxGeometry relative="1" as="geometry" />
        </mxCell>
        <mxCell id="KuxwwfLe9ZElaLR2S34V-54" style="edgeStyle=none;rounded=0;orthogonalLoop=1;jettySize=auto;html=1;strokeColor=default;align=center;verticalAlign=middle;fontFamily=Helvetica;fontSize=11;fontColor=default;labelBackgroundColor=default;endArrow=none;endFill=0;opacity=50;" parent="1" source="KuxwwfLe9ZElaLR2S34V-26" target="KuxwwfLe9ZElaLR2S34V-34" edge="1">
          <mxGeometry relative="1" as="geometry" />
        </mxCell>
        <mxCell id="KuxwwfLe9ZElaLR2S34V-26" value="3" style="ellipse;whiteSpace=wrap;html=1;aspect=fixed;opacity=70;fillColor=#FFB570;" parent="1" vertex="1">
          <mxGeometry x="130" y="190" width="15" height="15" as="geometry" />
        </mxCell>
        <mxCell id="KuxwwfLe9ZElaLR2S34V-55" style="edgeStyle=none;rounded=0;orthogonalLoop=1;jettySize=auto;html=1;entryX=0.5;entryY=0;entryDx=0;entryDy=0;strokeColor=default;align=center;verticalAlign=middle;fontFamily=Helvetica;fontSize=11;fontColor=default;labelBackgroundColor=default;endArrow=none;endFill=0;opacity=50;" parent="1" source="KuxwwfLe9ZElaLR2S34V-27" target="KuxwwfLe9ZElaLR2S34V-33" edge="1">
          <mxGeometry relative="1" as="geometry" />
        </mxCell>
        <mxCell id="KuxwwfLe9ZElaLR2S34V-56" style="edgeStyle=none;rounded=0;orthogonalLoop=1;jettySize=auto;html=1;entryX=0.5;entryY=0;entryDx=0;entryDy=0;strokeColor=default;align=center;verticalAlign=middle;fontFamily=Helvetica;fontSize=11;fontColor=default;labelBackgroundColor=default;endArrow=none;endFill=0;opacity=50;" parent="1" source="KuxwwfLe9ZElaLR2S34V-27" target="KuxwwfLe9ZElaLR2S34V-35" edge="1">
          <mxGeometry relative="1" as="geometry" />
        </mxCell>
        <mxCell id="KuxwwfLe9ZElaLR2S34V-27" value="4" style="ellipse;whiteSpace=wrap;html=1;aspect=fixed;opacity=70;fillColor=#FFB570;" parent="1" vertex="1">
          <mxGeometry x="160" y="190" width="15" height="15" as="geometry" />
        </mxCell>
        <mxCell id="KuxwwfLe9ZElaLR2S34V-57" style="edgeStyle=none;rounded=0;orthogonalLoop=1;jettySize=auto;html=1;strokeColor=default;align=center;verticalAlign=middle;fontFamily=Helvetica;fontSize=11;fontColor=default;labelBackgroundColor=default;endArrow=none;endFill=0;opacity=50;" parent="1" source="KuxwwfLe9ZElaLR2S34V-28" edge="1">
          <mxGeometry relative="1" as="geometry">
            <mxPoint x="110" y="230" as="targetPoint" />
          </mxGeometry>
        </mxCell>
        <mxCell id="KuxwwfLe9ZElaLR2S34V-58" style="edgeStyle=none;rounded=0;orthogonalLoop=1;jettySize=auto;html=1;strokeColor=default;align=center;verticalAlign=middle;fontFamily=Helvetica;fontSize=11;fontColor=default;labelBackgroundColor=default;endArrow=none;endFill=0;opacity=50;" parent="1" source="KuxwwfLe9ZElaLR2S34V-28" target="KuxwwfLe9ZElaLR2S34V-36" edge="1">
          <mxGeometry relative="1" as="geometry" />
        </mxCell>
        <mxCell id="KuxwwfLe9ZElaLR2S34V-59" style="edgeStyle=none;rounded=0;orthogonalLoop=1;jettySize=auto;html=1;entryX=0.5;entryY=0;entryDx=0;entryDy=0;strokeColor=default;align=center;verticalAlign=middle;fontFamily=Helvetica;fontSize=11;fontColor=default;labelBackgroundColor=default;endArrow=none;endFill=0;opacity=50;" parent="1" source="KuxwwfLe9ZElaLR2S34V-28" target="KuxwwfLe9ZElaLR2S34V-37" edge="1">
          <mxGeometry relative="1" as="geometry" />
        </mxCell>
        <mxCell id="KuxwwfLe9ZElaLR2S34V-28" value="5" style="ellipse;whiteSpace=wrap;html=1;aspect=fixed;opacity=70;fillColor=#FFB570;" parent="1" vertex="1">
          <mxGeometry x="190" y="190" width="15" height="15" as="geometry" />
        </mxCell>
        <mxCell id="KuxwwfLe9ZElaLR2S34V-60" style="edgeStyle=none;rounded=0;orthogonalLoop=1;jettySize=auto;html=1;entryX=0.5;entryY=0;entryDx=0;entryDy=0;strokeColor=default;align=center;verticalAlign=middle;fontFamily=Helvetica;fontSize=11;fontColor=default;labelBackgroundColor=default;endArrow=none;endFill=0;opacity=50;" parent="1" source="KuxwwfLe9ZElaLR2S34V-29" target="KuxwwfLe9ZElaLR2S34V-33" edge="1">
          <mxGeometry relative="1" as="geometry" />
        </mxCell>
        <mxCell id="KuxwwfLe9ZElaLR2S34V-61" style="edgeStyle=none;rounded=0;orthogonalLoop=1;jettySize=auto;html=1;entryX=0.5;entryY=0;entryDx=0;entryDy=0;strokeColor=default;align=center;verticalAlign=middle;fontFamily=Helvetica;fontSize=11;fontColor=default;labelBackgroundColor=default;endArrow=none;endFill=0;opacity=50;" parent="1" source="KuxwwfLe9ZElaLR2S34V-29" target="KuxwwfLe9ZElaLR2S34V-36" edge="1">
          <mxGeometry relative="1" as="geometry" />
        </mxCell>
        <mxCell id="KuxwwfLe9ZElaLR2S34V-62" style="edgeStyle=none;rounded=0;orthogonalLoop=1;jettySize=auto;html=1;entryX=0.5;entryY=0;entryDx=0;entryDy=0;strokeColor=default;align=center;verticalAlign=middle;fontFamily=Helvetica;fontSize=11;fontColor=default;labelBackgroundColor=default;endArrow=none;endFill=0;opacity=50;" parent="1" source="KuxwwfLe9ZElaLR2S34V-29" target="KuxwwfLe9ZElaLR2S34V-37" edge="1">
          <mxGeometry relative="1" as="geometry" />
        </mxCell>
        <mxCell id="KuxwwfLe9ZElaLR2S34V-29" value="6" style="ellipse;whiteSpace=wrap;html=1;aspect=fixed;opacity=70;fillColor=#FFB570;" parent="1" vertex="1">
          <mxGeometry x="220" y="190" width="15" height="15" as="geometry" />
        </mxCell>
        <mxCell id="KuxwwfLe9ZElaLR2S34V-63" style="edgeStyle=none;rounded=0;orthogonalLoop=1;jettySize=auto;html=1;entryX=0;entryY=0;entryDx=0;entryDy=0;strokeColor=default;align=center;verticalAlign=middle;fontFamily=Helvetica;fontSize=11;fontColor=default;labelBackgroundColor=default;endArrow=none;endFill=0;opacity=50;" parent="1" source="KuxwwfLe9ZElaLR2S34V-30" target="KuxwwfLe9ZElaLR2S34V-35" edge="1">
          <mxGeometry relative="1" as="geometry" />
        </mxCell>
        <mxCell id="KuxwwfLe9ZElaLR2S34V-64" style="edgeStyle=none;rounded=0;orthogonalLoop=1;jettySize=auto;html=1;entryX=0.5;entryY=0;entryDx=0;entryDy=0;strokeColor=default;align=center;verticalAlign=middle;fontFamily=Helvetica;fontSize=11;fontColor=default;labelBackgroundColor=default;endArrow=none;endFill=0;opacity=50;" parent="1" source="KuxwwfLe9ZElaLR2S34V-30" target="KuxwwfLe9ZElaLR2S34V-36" edge="1">
          <mxGeometry relative="1" as="geometry" />
        </mxCell>
        <mxCell id="KuxwwfLe9ZElaLR2S34V-65" style="edgeStyle=none;rounded=0;orthogonalLoop=1;jettySize=auto;html=1;entryX=0.5;entryY=0;entryDx=0;entryDy=0;strokeColor=default;align=center;verticalAlign=middle;fontFamily=Helvetica;fontSize=11;fontColor=default;labelBackgroundColor=default;endArrow=none;endFill=0;opacity=50;" parent="1" source="KuxwwfLe9ZElaLR2S34V-30" target="KuxwwfLe9ZElaLR2S34V-37" edge="1">
          <mxGeometry relative="1" as="geometry" />
        </mxCell>
        <mxCell id="KuxwwfLe9ZElaLR2S34V-30" value="7" style="ellipse;whiteSpace=wrap;html=1;aspect=fixed;opacity=70;fillColor=#FFB570;" parent="1" vertex="1">
          <mxGeometry x="250" y="190" width="15" height="15" as="geometry" />
        </mxCell>
        <mxCell id="KuxwwfLe9ZElaLR2S34V-66" style="edgeStyle=none;rounded=0;orthogonalLoop=1;jettySize=auto;html=1;strokeColor=default;align=center;verticalAlign=middle;fontFamily=Helvetica;fontSize=11;fontColor=default;labelBackgroundColor=default;endArrow=none;endFill=0;opacity=50;" parent="1" source="KuxwwfLe9ZElaLR2S34V-31" edge="1">
          <mxGeometry relative="1" as="geometry">
            <mxPoint x="200" y="230" as="targetPoint" />
          </mxGeometry>
        </mxCell>
        <mxCell id="KuxwwfLe9ZElaLR2S34V-67" style="edgeStyle=none;rounded=0;orthogonalLoop=1;jettySize=auto;html=1;entryX=0.5;entryY=0;entryDx=0;entryDy=0;strokeColor=default;align=center;verticalAlign=middle;fontFamily=Helvetica;fontSize=11;fontColor=default;labelBackgroundColor=default;endArrow=none;endFill=0;opacity=50;" parent="1" source="KuxwwfLe9ZElaLR2S34V-31" target="KuxwwfLe9ZElaLR2S34V-37" edge="1">
          <mxGeometry relative="1" as="geometry" />
        </mxCell>
        <mxCell id="KuxwwfLe9ZElaLR2S34V-31" value="8" style="ellipse;whiteSpace=wrap;html=1;aspect=fixed;opacity=70;fillColor=#FFB570;" parent="1" vertex="1">
          <mxGeometry x="280" y="190" width="15" height="15" as="geometry" />
        </mxCell>
        <mxCell id="KuxwwfLe9ZElaLR2S34V-39" style="edgeStyle=none;rounded=0;orthogonalLoop=1;jettySize=auto;html=1;entryX=0.5;entryY=0;entryDx=0;entryDy=0;strokeColor=default;align=center;verticalAlign=middle;fontFamily=Helvetica;fontSize=11;fontColor=default;labelBackgroundColor=default;endArrow=none;endFill=0;opacity=50;" parent="1" source="KuxwwfLe9ZElaLR2S34V-32" target="KuxwwfLe9ZElaLR2S34V-38" edge="1">
          <mxGeometry relative="1" as="geometry" />
        </mxCell>
        <mxCell id="KuxwwfLe9ZElaLR2S34V-32" value="1" style="ellipse;whiteSpace=wrap;html=1;aspect=fixed;opacity=70;fillColor=#FFD966;" parent="1" vertex="1">
          <mxGeometry x="70" y="230" width="15" height="15" as="geometry" />
        </mxCell>
        <mxCell id="KuxwwfLe9ZElaLR2S34V-33" value="2" style="ellipse;whiteSpace=wrap;html=1;aspect=fixed;opacity=70;fillColor=#FFD966;" parent="1" vertex="1">
          <mxGeometry x="100" y="230" width="15" height="15" as="geometry" />
        </mxCell>
        <mxCell id="KuxwwfLe9ZElaLR2S34V-41" style="edgeStyle=none;rounded=0;orthogonalLoop=1;jettySize=auto;html=1;entryX=0.5;entryY=0;entryDx=0;entryDy=0;strokeColor=default;align=center;verticalAlign=middle;fontFamily=Helvetica;fontSize=11;fontColor=default;labelBackgroundColor=default;endArrow=none;endFill=0;opacity=50;" parent="1" source="KuxwwfLe9ZElaLR2S34V-34" target="KuxwwfLe9ZElaLR2S34V-38" edge="1">
          <mxGeometry relative="1" as="geometry" />
        </mxCell>
        <mxCell id="KuxwwfLe9ZElaLR2S34V-34" value="3" style="ellipse;whiteSpace=wrap;html=1;aspect=fixed;opacity=70;fillColor=#FFD966;" parent="1" vertex="1">
          <mxGeometry x="130" y="230" width="15" height="15" as="geometry" />
        </mxCell>
        <mxCell id="KuxwwfLe9ZElaLR2S34V-42" style="edgeStyle=none;rounded=0;orthogonalLoop=1;jettySize=auto;html=1;entryX=0.5;entryY=0;entryDx=0;entryDy=0;strokeColor=default;align=center;verticalAlign=middle;fontFamily=Helvetica;fontSize=11;fontColor=default;labelBackgroundColor=default;endArrow=none;endFill=0;opacity=50;" parent="1" source="KuxwwfLe9ZElaLR2S34V-35" target="KuxwwfLe9ZElaLR2S34V-38" edge="1">
          <mxGeometry relative="1" as="geometry" />
        </mxCell>
        <mxCell id="KuxwwfLe9ZElaLR2S34V-35" value="4" style="ellipse;whiteSpace=wrap;html=1;aspect=fixed;opacity=70;fillColor=#FFD966;" parent="1" vertex="1">
          <mxGeometry x="160" y="230" width="15" height="15" as="geometry" />
        </mxCell>
        <mxCell id="KuxwwfLe9ZElaLR2S34V-43" style="edgeStyle=none;rounded=0;orthogonalLoop=1;jettySize=auto;html=1;entryX=0.5;entryY=0;entryDx=0;entryDy=0;strokeColor=default;align=center;verticalAlign=middle;fontFamily=Helvetica;fontSize=11;fontColor=default;labelBackgroundColor=default;endArrow=none;endFill=0;opacity=50;" parent="1" source="KuxwwfLe9ZElaLR2S34V-36" target="KuxwwfLe9ZElaLR2S34V-38" edge="1">
          <mxGeometry relative="1" as="geometry" />
        </mxCell>
        <mxCell id="KuxwwfLe9ZElaLR2S34V-36" value="5" style="ellipse;whiteSpace=wrap;html=1;aspect=fixed;opacity=70;fillColor=#FFD966;" parent="1" vertex="1">
          <mxGeometry x="190" y="230" width="15" height="15" as="geometry" />
        </mxCell>
        <mxCell id="KuxwwfLe9ZElaLR2S34V-44" style="edgeStyle=none;rounded=0;orthogonalLoop=1;jettySize=auto;html=1;entryX=0.5;entryY=0;entryDx=0;entryDy=0;strokeColor=default;align=center;verticalAlign=middle;fontFamily=Helvetica;fontSize=11;fontColor=default;labelBackgroundColor=default;endArrow=none;endFill=0;opacity=50;" parent="1" source="KuxwwfLe9ZElaLR2S34V-37" target="KuxwwfLe9ZElaLR2S34V-38" edge="1">
          <mxGeometry relative="1" as="geometry" />
        </mxCell>
        <mxCell id="KuxwwfLe9ZElaLR2S34V-37" value="6" style="ellipse;whiteSpace=wrap;html=1;aspect=fixed;opacity=70;fillColor=#FFD966;" parent="1" vertex="1">
          <mxGeometry x="220" y="230" width="15" height="15" as="geometry" />
        </mxCell>
        <mxCell id="KuxwwfLe9ZElaLR2S34V-38" value="2" style="ellipse;whiteSpace=wrap;html=1;aspect=fixed;opacity=70;strokeColor=#B3B3B3;fillColor=#FFF2CC;" parent="1" vertex="1">
          <mxGeometry x="100" y="270" width="15" height="15" as="geometry" />
        </mxCell>
        <mxCell id="KuxwwfLe9ZElaLR2S34V-40" style="edgeStyle=none;rounded=0;orthogonalLoop=1;jettySize=auto;html=1;entryX=0.5;entryY=0;entryDx=0;entryDy=0;strokeColor=default;align=center;verticalAlign=middle;fontFamily=Helvetica;fontSize=11;fontColor=default;labelBackgroundColor=default;endArrow=none;endFill=0;opacity=50;" parent="1" source="KuxwwfLe9ZElaLR2S34V-33" target="KuxwwfLe9ZElaLR2S34V-38" edge="1">
          <mxGeometry relative="1" as="geometry" />
        </mxCell>
        <mxCell id="KuxwwfLe9ZElaLR2S34V-129" style="edgeStyle=none;rounded=0;orthogonalLoop=1;jettySize=auto;html=1;entryX=0.5;entryY=0;entryDx=0;entryDy=0;strokeColor=default;align=center;verticalAlign=middle;fontFamily=Helvetica;fontSize=11;fontColor=default;labelBackgroundColor=default;endArrow=none;endFill=0;opacity=50;" parent="1" source="KuxwwfLe9ZElaLR2S34V-70" target="KuxwwfLe9ZElaLR2S34V-100" edge="1">
          <mxGeometry relative="1" as="geometry" />
        </mxCell>
        <mxCell id="KuxwwfLe9ZElaLR2S34V-70" value="1" style="ellipse;whiteSpace=wrap;html=1;aspect=fixed;opacity=70;fillColor=#FFB570;" parent="1" vertex="1">
          <mxGeometry x="70" y="497.5" width="15" height="15" as="geometry" />
        </mxCell>
        <mxCell id="KuxwwfLe9ZElaLR2S34V-77" value="2" style="ellipse;whiteSpace=wrap;html=1;aspect=fixed;opacity=70;fillColor=#FFB570;" parent="1" vertex="1">
          <mxGeometry x="100" y="497.5" width="15" height="15" as="geometry" />
        </mxCell>
        <mxCell id="KuxwwfLe9ZElaLR2S34V-80" value="3" style="ellipse;whiteSpace=wrap;html=1;aspect=fixed;opacity=70;fillColor=#FFB570;" parent="1" vertex="1">
          <mxGeometry x="130" y="497.5" width="15" height="15" as="geometry" />
        </mxCell>
        <mxCell id="KuxwwfLe9ZElaLR2S34V-83" value="4" style="ellipse;whiteSpace=wrap;html=1;aspect=fixed;opacity=70;fillColor=#FFB570;" parent="1" vertex="1">
          <mxGeometry x="160" y="497.5" width="15" height="15" as="geometry" />
        </mxCell>
        <mxCell id="KuxwwfLe9ZElaLR2S34V-87" value="5" style="ellipse;whiteSpace=wrap;html=1;aspect=fixed;opacity=70;fillColor=#FFB570;" parent="1" vertex="1">
          <mxGeometry x="190" y="497.5" width="15" height="15" as="geometry" />
        </mxCell>
        <mxCell id="KuxwwfLe9ZElaLR2S34V-91" value="6" style="ellipse;whiteSpace=wrap;html=1;aspect=fixed;opacity=70;fillColor=#FFB570;" parent="1" vertex="1">
          <mxGeometry x="220" y="497.5" width="15" height="15" as="geometry" />
        </mxCell>
        <mxCell id="KuxwwfLe9ZElaLR2S34V-95" value="7" style="ellipse;whiteSpace=wrap;html=1;aspect=fixed;opacity=70;fillColor=#FFB570;" parent="1" vertex="1">
          <mxGeometry x="250" y="497.5" width="15" height="15" as="geometry" />
        </mxCell>
        <mxCell id="KuxwwfLe9ZElaLR2S34V-98" value="8" style="ellipse;whiteSpace=wrap;html=1;aspect=fixed;opacity=70;fillColor=#FFB570;" parent="1" vertex="1">
          <mxGeometry x="280" y="497.5" width="15" height="15" as="geometry" />
        </mxCell>
        <mxCell id="KuxwwfLe9ZElaLR2S34V-169" style="edgeStyle=none;rounded=0;orthogonalLoop=1;jettySize=auto;html=1;entryX=0.5;entryY=1;entryDx=0;entryDy=0;opacity=50;strokeColor=default;align=center;verticalAlign=middle;fontFamily=Helvetica;fontSize=11;fontColor=default;labelBackgroundColor=default;endArrow=none;endFill=0;" parent="1" source="KuxwwfLe9ZElaLR2S34V-100" target="KuxwwfLe9ZElaLR2S34V-77" edge="1">
          <mxGeometry relative="1" as="geometry" />
        </mxCell>
        <mxCell id="KuxwwfLe9ZElaLR2S34V-100" value="1" style="ellipse;whiteSpace=wrap;html=1;aspect=fixed;opacity=70;fillColor=#FFD966;" parent="1" vertex="1">
          <mxGeometry x="70" y="537.5" width="15" height="15" as="geometry" />
        </mxCell>
        <mxCell id="KuxwwfLe9ZElaLR2S34V-170" style="edgeStyle=none;rounded=0;orthogonalLoop=1;jettySize=auto;html=1;entryX=0.5;entryY=1;entryDx=0;entryDy=0;opacity=50;strokeColor=default;align=center;verticalAlign=middle;fontFamily=Helvetica;fontSize=11;fontColor=default;labelBackgroundColor=default;endArrow=none;endFill=0;" parent="1" source="KuxwwfLe9ZElaLR2S34V-101" target="KuxwwfLe9ZElaLR2S34V-70" edge="1">
          <mxGeometry relative="1" as="geometry" />
        </mxCell>
        <mxCell id="KuxwwfLe9ZElaLR2S34V-171" style="edgeStyle=none;rounded=0;orthogonalLoop=1;jettySize=auto;html=1;entryX=0.5;entryY=1;entryDx=0;entryDy=0;opacity=50;strokeColor=default;align=center;verticalAlign=middle;fontFamily=Helvetica;fontSize=11;fontColor=default;labelBackgroundColor=default;endArrow=none;endFill=0;" parent="1" source="KuxwwfLe9ZElaLR2S34V-101" target="KuxwwfLe9ZElaLR2S34V-77" edge="1">
          <mxGeometry relative="1" as="geometry" />
        </mxCell>
        <mxCell id="KuxwwfLe9ZElaLR2S34V-172" style="edgeStyle=none;rounded=0;orthogonalLoop=1;jettySize=auto;html=1;entryX=0.5;entryY=1;entryDx=0;entryDy=0;opacity=50;strokeColor=default;align=center;verticalAlign=middle;fontFamily=Helvetica;fontSize=11;fontColor=default;labelBackgroundColor=default;endArrow=none;endFill=0;" parent="1" source="KuxwwfLe9ZElaLR2S34V-101" target="KuxwwfLe9ZElaLR2S34V-80" edge="1">
          <mxGeometry relative="1" as="geometry" />
        </mxCell>
        <mxCell id="KuxwwfLe9ZElaLR2S34V-173" style="edgeStyle=none;rounded=0;orthogonalLoop=1;jettySize=auto;html=1;entryX=0;entryY=1;entryDx=0;entryDy=0;opacity=50;strokeColor=default;align=center;verticalAlign=middle;fontFamily=Helvetica;fontSize=11;fontColor=default;labelBackgroundColor=default;endArrow=none;endFill=0;" parent="1" source="KuxwwfLe9ZElaLR2S34V-101" target="KuxwwfLe9ZElaLR2S34V-83" edge="1">
          <mxGeometry relative="1" as="geometry" />
        </mxCell>
        <mxCell id="KuxwwfLe9ZElaLR2S34V-174" style="edgeStyle=none;rounded=0;orthogonalLoop=1;jettySize=auto;html=1;entryX=0;entryY=1;entryDx=0;entryDy=0;opacity=50;strokeColor=default;align=center;verticalAlign=middle;fontFamily=Helvetica;fontSize=11;fontColor=default;labelBackgroundColor=default;endArrow=none;endFill=0;" parent="1" source="KuxwwfLe9ZElaLR2S34V-101" target="KuxwwfLe9ZElaLR2S34V-87" edge="1">
          <mxGeometry relative="1" as="geometry" />
        </mxCell>
        <mxCell id="KuxwwfLe9ZElaLR2S34V-175" style="edgeStyle=none;rounded=0;orthogonalLoop=1;jettySize=auto;html=1;entryX=0.5;entryY=1;entryDx=0;entryDy=0;opacity=50;strokeColor=default;align=center;verticalAlign=middle;fontFamily=Helvetica;fontSize=11;fontColor=default;labelBackgroundColor=default;endArrow=none;endFill=0;" parent="1" source="KuxwwfLe9ZElaLR2S34V-101" target="KuxwwfLe9ZElaLR2S34V-91" edge="1">
          <mxGeometry relative="1" as="geometry" />
        </mxCell>
        <mxCell id="KuxwwfLe9ZElaLR2S34V-101" value="2" style="ellipse;whiteSpace=wrap;html=1;aspect=fixed;opacity=70;fillColor=#FFD966;" parent="1" vertex="1">
          <mxGeometry x="100" y="537.5" width="15" height="15" as="geometry" />
        </mxCell>
        <mxCell id="KuxwwfLe9ZElaLR2S34V-177" style="edgeStyle=none;rounded=0;orthogonalLoop=1;jettySize=auto;html=1;entryX=0.5;entryY=1;entryDx=0;entryDy=0;opacity=50;strokeColor=default;align=center;verticalAlign=middle;fontFamily=Helvetica;fontSize=11;fontColor=default;labelBackgroundColor=default;endArrow=none;endFill=0;" parent="1" source="KuxwwfLe9ZElaLR2S34V-103" target="KuxwwfLe9ZElaLR2S34V-77" edge="1">
          <mxGeometry relative="1" as="geometry" />
        </mxCell>
        <mxCell id="KuxwwfLe9ZElaLR2S34V-178" style="edgeStyle=none;rounded=0;orthogonalLoop=1;jettySize=auto;html=1;opacity=50;strokeColor=default;align=center;verticalAlign=middle;fontFamily=Helvetica;fontSize=11;fontColor=default;labelBackgroundColor=default;endArrow=none;endFill=0;" parent="1" source="KuxwwfLe9ZElaLR2S34V-103" target="KuxwwfLe9ZElaLR2S34V-80" edge="1">
          <mxGeometry relative="1" as="geometry" />
        </mxCell>
        <mxCell id="KuxwwfLe9ZElaLR2S34V-103" value="3" style="ellipse;whiteSpace=wrap;html=1;aspect=fixed;opacity=70;fillColor=#FFD966;" parent="1" vertex="1">
          <mxGeometry x="130" y="537.5" width="15" height="15" as="geometry" />
        </mxCell>
        <mxCell id="KuxwwfLe9ZElaLR2S34V-179" style="edgeStyle=none;rounded=0;orthogonalLoop=1;jettySize=auto;html=1;entryX=0.5;entryY=1;entryDx=0;entryDy=0;opacity=50;strokeColor=default;align=center;verticalAlign=middle;fontFamily=Helvetica;fontSize=11;fontColor=default;labelBackgroundColor=default;endArrow=none;endFill=0;" parent="1" source="KuxwwfLe9ZElaLR2S34V-105" target="KuxwwfLe9ZElaLR2S34V-83" edge="1">
          <mxGeometry relative="1" as="geometry" />
        </mxCell>
        <mxCell id="KuxwwfLe9ZElaLR2S34V-180" style="edgeStyle=none;rounded=0;orthogonalLoop=1;jettySize=auto;html=1;entryX=0.5;entryY=1;entryDx=0;entryDy=0;opacity=50;strokeColor=default;align=center;verticalAlign=middle;fontFamily=Helvetica;fontSize=11;fontColor=default;labelBackgroundColor=default;endArrow=none;endFill=0;" parent="1" source="KuxwwfLe9ZElaLR2S34V-105" target="KuxwwfLe9ZElaLR2S34V-77" edge="1">
          <mxGeometry relative="1" as="geometry" />
        </mxCell>
        <mxCell id="KuxwwfLe9ZElaLR2S34V-181" style="edgeStyle=none;rounded=0;orthogonalLoop=1;jettySize=auto;html=1;entryX=0;entryY=1;entryDx=0;entryDy=0;opacity=50;strokeColor=default;align=center;verticalAlign=middle;fontFamily=Helvetica;fontSize=11;fontColor=default;labelBackgroundColor=default;endArrow=none;endFill=0;" parent="1" source="KuxwwfLe9ZElaLR2S34V-105" target="KuxwwfLe9ZElaLR2S34V-95" edge="1">
          <mxGeometry relative="1" as="geometry" />
        </mxCell>
        <mxCell id="KuxwwfLe9ZElaLR2S34V-105" value="4" style="ellipse;whiteSpace=wrap;html=1;aspect=fixed;opacity=70;fillColor=#FFD966;" parent="1" vertex="1">
          <mxGeometry x="160" y="537.5" width="15" height="15" as="geometry" />
        </mxCell>
        <mxCell id="KuxwwfLe9ZElaLR2S34V-182" style="edgeStyle=none;rounded=0;orthogonalLoop=1;jettySize=auto;html=1;entryX=0.5;entryY=1;entryDx=0;entryDy=0;opacity=50;strokeColor=default;align=center;verticalAlign=middle;fontFamily=Helvetica;fontSize=11;fontColor=default;labelBackgroundColor=default;endArrow=none;endFill=0;" parent="1" source="KuxwwfLe9ZElaLR2S34V-107" target="KuxwwfLe9ZElaLR2S34V-77" edge="1">
          <mxGeometry relative="1" as="geometry" />
        </mxCell>
        <mxCell id="KuxwwfLe9ZElaLR2S34V-183" style="edgeStyle=none;rounded=0;orthogonalLoop=1;jettySize=auto;html=1;entryX=0.5;entryY=1;entryDx=0;entryDy=0;opacity=50;strokeColor=default;align=center;verticalAlign=middle;fontFamily=Helvetica;fontSize=11;fontColor=default;labelBackgroundColor=default;endArrow=none;endFill=0;" parent="1" source="KuxwwfLe9ZElaLR2S34V-107" target="KuxwwfLe9ZElaLR2S34V-91" edge="1">
          <mxGeometry relative="1" as="geometry" />
        </mxCell>
        <mxCell id="KuxwwfLe9ZElaLR2S34V-184" style="edgeStyle=none;rounded=0;orthogonalLoop=1;jettySize=auto;html=1;entryX=0;entryY=1;entryDx=0;entryDy=0;opacity=50;strokeColor=default;align=center;verticalAlign=middle;fontFamily=Helvetica;fontSize=11;fontColor=default;labelBackgroundColor=default;endArrow=none;endFill=0;" parent="1" source="KuxwwfLe9ZElaLR2S34V-107" target="KuxwwfLe9ZElaLR2S34V-95" edge="1">
          <mxGeometry relative="1" as="geometry" />
        </mxCell>
        <mxCell id="KuxwwfLe9ZElaLR2S34V-185" style="edgeStyle=none;rounded=0;orthogonalLoop=1;jettySize=auto;html=1;entryX=0;entryY=1;entryDx=0;entryDy=0;opacity=50;strokeColor=default;align=center;verticalAlign=middle;fontFamily=Helvetica;fontSize=11;fontColor=default;labelBackgroundColor=default;endArrow=none;endFill=0;" parent="1" source="KuxwwfLe9ZElaLR2S34V-107" target="KuxwwfLe9ZElaLR2S34V-98" edge="1">
          <mxGeometry relative="1" as="geometry" />
        </mxCell>
        <mxCell id="KuxwwfLe9ZElaLR2S34V-186" style="edgeStyle=none;rounded=0;orthogonalLoop=1;jettySize=auto;html=1;entryX=0.5;entryY=1;entryDx=0;entryDy=0;opacity=50;strokeColor=default;align=center;verticalAlign=middle;fontFamily=Helvetica;fontSize=11;fontColor=default;labelBackgroundColor=default;endArrow=none;endFill=0;" parent="1" source="KuxwwfLe9ZElaLR2S34V-107" target="KuxwwfLe9ZElaLR2S34V-87" edge="1">
          <mxGeometry relative="1" as="geometry" />
        </mxCell>
        <mxCell id="KuxwwfLe9ZElaLR2S34V-107" value="5" style="ellipse;whiteSpace=wrap;html=1;aspect=fixed;opacity=70;fillColor=#FFD966;" parent="1" vertex="1">
          <mxGeometry x="190" y="537.5" width="15" height="15" as="geometry" />
        </mxCell>
        <mxCell id="KuxwwfLe9ZElaLR2S34V-187" style="edgeStyle=none;rounded=0;orthogonalLoop=1;jettySize=auto;html=1;entryX=0.5;entryY=1;entryDx=0;entryDy=0;opacity=50;strokeColor=default;align=center;verticalAlign=middle;fontFamily=Helvetica;fontSize=11;fontColor=default;labelBackgroundColor=default;endArrow=none;endFill=0;" parent="1" source="KuxwwfLe9ZElaLR2S34V-109" target="KuxwwfLe9ZElaLR2S34V-77" edge="1">
          <mxGeometry relative="1" as="geometry" />
        </mxCell>
        <mxCell id="KuxwwfLe9ZElaLR2S34V-188" style="edgeStyle=none;rounded=0;orthogonalLoop=1;jettySize=auto;html=1;entryX=0.5;entryY=1;entryDx=0;entryDy=0;opacity=50;strokeColor=default;align=center;verticalAlign=middle;fontFamily=Helvetica;fontSize=11;fontColor=default;labelBackgroundColor=default;endArrow=none;endFill=0;" parent="1" source="KuxwwfLe9ZElaLR2S34V-109" target="KuxwwfLe9ZElaLR2S34V-87" edge="1">
          <mxGeometry relative="1" as="geometry" />
        </mxCell>
        <mxCell id="KuxwwfLe9ZElaLR2S34V-189" style="edgeStyle=none;rounded=0;orthogonalLoop=1;jettySize=auto;html=1;entryX=0.5;entryY=1;entryDx=0;entryDy=0;opacity=50;strokeColor=default;align=center;verticalAlign=middle;fontFamily=Helvetica;fontSize=11;fontColor=default;labelBackgroundColor=default;endArrow=none;endFill=0;" parent="1" source="KuxwwfLe9ZElaLR2S34V-109" target="KuxwwfLe9ZElaLR2S34V-91" edge="1">
          <mxGeometry relative="1" as="geometry" />
        </mxCell>
        <mxCell id="KuxwwfLe9ZElaLR2S34V-190" style="edgeStyle=none;rounded=0;orthogonalLoop=1;jettySize=auto;html=1;entryX=0;entryY=1;entryDx=0;entryDy=0;opacity=50;strokeColor=default;align=center;verticalAlign=middle;fontFamily=Helvetica;fontSize=11;fontColor=default;labelBackgroundColor=default;endArrow=none;endFill=0;" parent="1" source="KuxwwfLe9ZElaLR2S34V-109" target="KuxwwfLe9ZElaLR2S34V-95" edge="1">
          <mxGeometry relative="1" as="geometry" />
        </mxCell>
        <mxCell id="KuxwwfLe9ZElaLR2S34V-192" style="edgeStyle=none;rounded=0;orthogonalLoop=1;jettySize=auto;html=1;entryX=0;entryY=1;entryDx=0;entryDy=0;opacity=50;strokeColor=default;align=center;verticalAlign=middle;fontFamily=Helvetica;fontSize=11;fontColor=default;labelBackgroundColor=default;endArrow=none;endFill=0;" parent="1" source="KuxwwfLe9ZElaLR2S34V-109" target="KuxwwfLe9ZElaLR2S34V-98" edge="1">
          <mxGeometry relative="1" as="geometry" />
        </mxCell>
        <mxCell id="KuxwwfLe9ZElaLR2S34V-109" value="6" style="ellipse;whiteSpace=wrap;html=1;aspect=fixed;opacity=70;fillColor=#FFD966;" parent="1" vertex="1">
          <mxGeometry x="220" y="537.5" width="15" height="15" as="geometry" />
        </mxCell>
        <mxCell id="KuxwwfLe9ZElaLR2S34V-157" value="" style="edgeStyle=none;rounded=0;orthogonalLoop=1;jettySize=auto;html=1;opacity=50;strokeColor=default;align=center;verticalAlign=middle;fontFamily=Helvetica;fontSize=11;fontColor=default;labelBackgroundColor=default;endArrow=none;endFill=0;" parent="1" source="KuxwwfLe9ZElaLR2S34V-112" target="KuxwwfLe9ZElaLR2S34V-122" edge="1">
          <mxGeometry relative="1" as="geometry" />
        </mxCell>
        <mxCell id="KuxwwfLe9ZElaLR2S34V-193" style="edgeStyle=none;rounded=0;orthogonalLoop=1;jettySize=auto;html=1;entryX=0.5;entryY=1;entryDx=0;entryDy=0;opacity=50;strokeColor=default;align=center;verticalAlign=middle;fontFamily=Helvetica;fontSize=11;fontColor=default;labelBackgroundColor=default;endArrow=none;endFill=0;" parent="1" source="KuxwwfLe9ZElaLR2S34V-112" target="KuxwwfLe9ZElaLR2S34V-83" edge="1">
          <mxGeometry relative="1" as="geometry" />
        </mxCell>
        <mxCell id="KuxwwfLe9ZElaLR2S34V-194" style="edgeStyle=none;rounded=0;orthogonalLoop=1;jettySize=auto;html=1;entryX=0.5;entryY=1;entryDx=0;entryDy=0;opacity=50;strokeColor=default;align=center;verticalAlign=middle;fontFamily=Helvetica;fontSize=11;fontColor=default;labelBackgroundColor=default;endArrow=none;endFill=0;" parent="1" source="KuxwwfLe9ZElaLR2S34V-112" target="KuxwwfLe9ZElaLR2S34V-87" edge="1">
          <mxGeometry relative="1" as="geometry" />
        </mxCell>
        <mxCell id="KuxwwfLe9ZElaLR2S34V-195" style="edgeStyle=none;rounded=0;orthogonalLoop=1;jettySize=auto;html=1;entryX=0.5;entryY=1;entryDx=0;entryDy=0;opacity=50;strokeColor=default;align=center;verticalAlign=middle;fontFamily=Helvetica;fontSize=11;fontColor=default;labelBackgroundColor=default;endArrow=none;endFill=0;" parent="1" source="KuxwwfLe9ZElaLR2S34V-112" target="KuxwwfLe9ZElaLR2S34V-91" edge="1">
          <mxGeometry relative="1" as="geometry" />
        </mxCell>
        <mxCell id="KuxwwfLe9ZElaLR2S34V-196" style="edgeStyle=none;rounded=0;orthogonalLoop=1;jettySize=auto;html=1;entryX=0.5;entryY=1;entryDx=0;entryDy=0;opacity=50;strokeColor=default;align=center;verticalAlign=middle;fontFamily=Helvetica;fontSize=11;fontColor=default;labelBackgroundColor=default;endArrow=none;endFill=0;" parent="1" source="KuxwwfLe9ZElaLR2S34V-112" target="KuxwwfLe9ZElaLR2S34V-95" edge="1">
          <mxGeometry relative="1" as="geometry" />
        </mxCell>
        <mxCell id="KuxwwfLe9ZElaLR2S34V-197" style="edgeStyle=none;rounded=0;orthogonalLoop=1;jettySize=auto;html=1;entryX=0;entryY=1;entryDx=0;entryDy=0;opacity=50;strokeColor=default;align=center;verticalAlign=middle;fontFamily=Helvetica;fontSize=11;fontColor=default;labelBackgroundColor=default;endArrow=none;endFill=0;" parent="1" source="KuxwwfLe9ZElaLR2S34V-112" target="KuxwwfLe9ZElaLR2S34V-98" edge="1">
          <mxGeometry relative="1" as="geometry" />
        </mxCell>
        <mxCell id="KuxwwfLe9ZElaLR2S34V-198" style="edgeStyle=none;rounded=0;orthogonalLoop=1;jettySize=auto;html=1;entryX=0;entryY=1;entryDx=0;entryDy=0;opacity=50;strokeColor=default;align=center;verticalAlign=middle;fontFamily=Helvetica;fontSize=11;fontColor=default;labelBackgroundColor=default;endArrow=none;endFill=0;" parent="1" source="KuxwwfLe9ZElaLR2S34V-112" target="KuxwwfLe9ZElaLR2S34V-115" edge="1">
          <mxGeometry relative="1" as="geometry" />
        </mxCell>
        <mxCell id="KuxwwfLe9ZElaLR2S34V-112" value="7" style="ellipse;whiteSpace=wrap;html=1;aspect=fixed;opacity=70;fillColor=#FFD966;" parent="1" vertex="1">
          <mxGeometry x="250" y="537.5" width="15" height="15" as="geometry" />
        </mxCell>
        <mxCell id="KuxwwfLe9ZElaLR2S34V-199" style="edgeStyle=none;rounded=0;orthogonalLoop=1;jettySize=auto;html=1;entryX=0.5;entryY=1;entryDx=0;entryDy=0;opacity=50;strokeColor=default;align=center;verticalAlign=middle;fontFamily=Helvetica;fontSize=11;fontColor=default;labelBackgroundColor=default;endArrow=none;endFill=0;" parent="1" source="KuxwwfLe9ZElaLR2S34V-113" target="KuxwwfLe9ZElaLR2S34V-87" edge="1">
          <mxGeometry relative="1" as="geometry" />
        </mxCell>
        <mxCell id="KuxwwfLe9ZElaLR2S34V-200" style="edgeStyle=none;rounded=0;orthogonalLoop=1;jettySize=auto;html=1;entryX=0.5;entryY=1;entryDx=0;entryDy=0;opacity=50;strokeColor=default;align=center;verticalAlign=middle;fontFamily=Helvetica;fontSize=11;fontColor=default;labelBackgroundColor=default;endArrow=none;endFill=0;" parent="1" source="KuxwwfLe9ZElaLR2S34V-113" target="KuxwwfLe9ZElaLR2S34V-91" edge="1">
          <mxGeometry relative="1" as="geometry" />
        </mxCell>
        <mxCell id="KuxwwfLe9ZElaLR2S34V-201" style="edgeStyle=none;rounded=0;orthogonalLoop=1;jettySize=auto;html=1;entryX=0.5;entryY=1;entryDx=0;entryDy=0;opacity=50;strokeColor=default;align=center;verticalAlign=middle;fontFamily=Helvetica;fontSize=11;fontColor=default;labelBackgroundColor=default;endArrow=none;endFill=0;" parent="1" source="KuxwwfLe9ZElaLR2S34V-113" target="KuxwwfLe9ZElaLR2S34V-95" edge="1">
          <mxGeometry relative="1" as="geometry" />
        </mxCell>
        <mxCell id="KuxwwfLe9ZElaLR2S34V-202" style="edgeStyle=none;rounded=0;orthogonalLoop=1;jettySize=auto;html=1;entryX=0.5;entryY=1;entryDx=0;entryDy=0;opacity=50;strokeColor=default;align=center;verticalAlign=middle;fontFamily=Helvetica;fontSize=11;fontColor=default;labelBackgroundColor=default;endArrow=none;endFill=0;" parent="1" source="KuxwwfLe9ZElaLR2S34V-113" target="KuxwwfLe9ZElaLR2S34V-98" edge="1">
          <mxGeometry relative="1" as="geometry" />
        </mxCell>
        <mxCell id="KuxwwfLe9ZElaLR2S34V-113" value="8" style="ellipse;whiteSpace=wrap;html=1;aspect=fixed;opacity=70;fillColor=#FFD966;" parent="1" vertex="1">
          <mxGeometry x="280" y="537.5" width="15" height="15" as="geometry" />
        </mxCell>
        <mxCell id="KuxwwfLe9ZElaLR2S34V-203" style="edgeStyle=none;rounded=0;orthogonalLoop=1;jettySize=auto;html=1;entryX=0.5;entryY=1;entryDx=0;entryDy=0;opacity=50;strokeColor=default;align=center;verticalAlign=middle;fontFamily=Helvetica;fontSize=11;fontColor=default;labelBackgroundColor=default;endArrow=none;endFill=0;" parent="1" source="KuxwwfLe9ZElaLR2S34V-114" target="KuxwwfLe9ZElaLR2S34V-95" edge="1">
          <mxGeometry relative="1" as="geometry" />
        </mxCell>
        <mxCell id="KuxwwfLe9ZElaLR2S34V-204" style="edgeStyle=none;rounded=0;orthogonalLoop=1;jettySize=auto;html=1;entryX=0.5;entryY=1;entryDx=0;entryDy=0;opacity=50;strokeColor=default;align=center;verticalAlign=middle;fontFamily=Helvetica;fontSize=11;fontColor=default;labelBackgroundColor=default;endArrow=none;endFill=0;" parent="1" source="KuxwwfLe9ZElaLR2S34V-114" target="KuxwwfLe9ZElaLR2S34V-115" edge="1">
          <mxGeometry relative="1" as="geometry" />
        </mxCell>
        <mxCell id="KuxwwfLe9ZElaLR2S34V-114" value="9" style="ellipse;whiteSpace=wrap;html=1;aspect=fixed;opacity=70;fillColor=#FFD966;" parent="1" vertex="1">
          <mxGeometry x="310" y="537.5" width="15" height="15" as="geometry" />
        </mxCell>
        <mxCell id="KuxwwfLe9ZElaLR2S34V-115" value="9" style="ellipse;whiteSpace=wrap;html=1;aspect=fixed;opacity=70;fillColor=#FFB570;" parent="1" vertex="1">
          <mxGeometry x="310" y="497.5" width="15" height="15" as="geometry" />
        </mxCell>
        <mxCell id="KuxwwfLe9ZElaLR2S34V-132" style="edgeStyle=none;rounded=0;orthogonalLoop=1;jettySize=auto;html=1;entryX=0.5;entryY=1;entryDx=0;entryDy=0;opacity=50;strokeColor=default;align=center;verticalAlign=middle;fontFamily=Helvetica;fontSize=11;fontColor=default;labelBackgroundColor=default;endArrow=none;endFill=0;" parent="1" source="KuxwwfLe9ZElaLR2S34V-118" target="KuxwwfLe9ZElaLR2S34V-100" edge="1">
          <mxGeometry relative="1" as="geometry" />
        </mxCell>
        <mxCell id="KuxwwfLe9ZElaLR2S34V-133" style="edgeStyle=none;rounded=0;orthogonalLoop=1;jettySize=auto;html=1;entryX=0.5;entryY=1;entryDx=0;entryDy=0;opacity=50;strokeColor=default;align=center;verticalAlign=middle;fontFamily=Helvetica;fontSize=11;fontColor=default;labelBackgroundColor=default;endArrow=none;endFill=0;" parent="1" source="KuxwwfLe9ZElaLR2S34V-118" target="KuxwwfLe9ZElaLR2S34V-101" edge="1">
          <mxGeometry relative="1" as="geometry" />
        </mxCell>
        <mxCell id="KuxwwfLe9ZElaLR2S34V-118" value="1" style="ellipse;whiteSpace=wrap;html=1;aspect=fixed;opacity=70;fillColor=#FFF2CC;" parent="1" vertex="1">
          <mxGeometry x="70" y="577.5" width="15" height="15" as="geometry" />
        </mxCell>
        <mxCell id="KuxwwfLe9ZElaLR2S34V-134" style="edgeStyle=none;rounded=0;orthogonalLoop=1;jettySize=auto;html=1;entryX=1;entryY=1;entryDx=0;entryDy=0;opacity=50;strokeColor=default;align=center;verticalAlign=middle;fontFamily=Helvetica;fontSize=11;fontColor=default;labelBackgroundColor=default;endArrow=none;endFill=0;" parent="1" source="KuxwwfLe9ZElaLR2S34V-119" target="KuxwwfLe9ZElaLR2S34V-100" edge="1">
          <mxGeometry relative="1" as="geometry" />
        </mxCell>
        <mxCell id="KuxwwfLe9ZElaLR2S34V-135" style="edgeStyle=none;rounded=0;orthogonalLoop=1;jettySize=auto;html=1;entryX=0.5;entryY=1;entryDx=0;entryDy=0;opacity=50;strokeColor=default;align=center;verticalAlign=middle;fontFamily=Helvetica;fontSize=11;fontColor=default;labelBackgroundColor=default;endArrow=none;endFill=0;" parent="1" source="KuxwwfLe9ZElaLR2S34V-119" target="KuxwwfLe9ZElaLR2S34V-101" edge="1">
          <mxGeometry relative="1" as="geometry" />
        </mxCell>
        <mxCell id="KuxwwfLe9ZElaLR2S34V-136" style="edgeStyle=none;rounded=0;orthogonalLoop=1;jettySize=auto;html=1;entryX=0.5;entryY=1;entryDx=0;entryDy=0;opacity=50;strokeColor=default;align=center;verticalAlign=middle;fontFamily=Helvetica;fontSize=11;fontColor=default;labelBackgroundColor=default;endArrow=none;endFill=0;" parent="1" source="KuxwwfLe9ZElaLR2S34V-119" target="KuxwwfLe9ZElaLR2S34V-103" edge="1">
          <mxGeometry relative="1" as="geometry" />
        </mxCell>
        <mxCell id="KuxwwfLe9ZElaLR2S34V-137" style="edgeStyle=none;rounded=0;orthogonalLoop=1;jettySize=auto;html=1;entryX=0.5;entryY=1;entryDx=0;entryDy=0;opacity=50;strokeColor=default;align=center;verticalAlign=middle;fontFamily=Helvetica;fontSize=11;fontColor=default;labelBackgroundColor=default;endArrow=none;endFill=0;" parent="1" source="KuxwwfLe9ZElaLR2S34V-119" target="KuxwwfLe9ZElaLR2S34V-105" edge="1">
          <mxGeometry relative="1" as="geometry" />
        </mxCell>
        <mxCell id="KuxwwfLe9ZElaLR2S34V-138" style="edgeStyle=none;rounded=0;orthogonalLoop=1;jettySize=auto;html=1;entryX=0.5;entryY=1;entryDx=0;entryDy=0;opacity=50;strokeColor=default;align=center;verticalAlign=middle;fontFamily=Helvetica;fontSize=11;fontColor=default;labelBackgroundColor=default;endArrow=none;endFill=0;" parent="1" source="KuxwwfLe9ZElaLR2S34V-119" target="KuxwwfLe9ZElaLR2S34V-107" edge="1">
          <mxGeometry relative="1" as="geometry" />
        </mxCell>
        <mxCell id="KuxwwfLe9ZElaLR2S34V-139" style="edgeStyle=none;rounded=0;orthogonalLoop=1;jettySize=auto;html=1;entryX=0.5;entryY=1;entryDx=0;entryDy=0;opacity=50;strokeColor=default;align=center;verticalAlign=middle;fontFamily=Helvetica;fontSize=11;fontColor=default;labelBackgroundColor=default;endArrow=none;endFill=0;" parent="1" source="KuxwwfLe9ZElaLR2S34V-119" target="KuxwwfLe9ZElaLR2S34V-109" edge="1">
          <mxGeometry relative="1" as="geometry" />
        </mxCell>
        <mxCell id="KuxwwfLe9ZElaLR2S34V-119" value="2" style="ellipse;whiteSpace=wrap;html=1;aspect=fixed;opacity=70;fillColor=#FFF2CC;" parent="1" vertex="1">
          <mxGeometry x="100" y="577.5" width="15" height="15" as="geometry" />
        </mxCell>
        <mxCell id="KuxwwfLe9ZElaLR2S34V-140" style="edgeStyle=none;rounded=0;orthogonalLoop=1;jettySize=auto;html=1;entryX=1;entryY=1;entryDx=0;entryDy=0;opacity=50;strokeColor=default;align=center;verticalAlign=middle;fontFamily=Helvetica;fontSize=11;fontColor=default;labelBackgroundColor=default;endArrow=none;endFill=0;" parent="1" source="KuxwwfLe9ZElaLR2S34V-120" target="KuxwwfLe9ZElaLR2S34V-101" edge="1">
          <mxGeometry relative="1" as="geometry" />
        </mxCell>
        <mxCell id="KuxwwfLe9ZElaLR2S34V-141" style="edgeStyle=none;rounded=0;orthogonalLoop=1;jettySize=auto;html=1;entryX=0.5;entryY=1;entryDx=0;entryDy=0;opacity=50;strokeColor=default;align=center;verticalAlign=middle;fontFamily=Helvetica;fontSize=11;fontColor=default;labelBackgroundColor=default;endArrow=none;endFill=0;" parent="1" source="KuxwwfLe9ZElaLR2S34V-120" target="KuxwwfLe9ZElaLR2S34V-103" edge="1">
          <mxGeometry relative="1" as="geometry" />
        </mxCell>
        <mxCell id="KuxwwfLe9ZElaLR2S34V-120" value="3" style="ellipse;whiteSpace=wrap;html=1;aspect=fixed;opacity=70;fillColor=#FFF2CC;" parent="1" vertex="1">
          <mxGeometry x="130" y="577.5" width="15" height="15" as="geometry" />
        </mxCell>
        <mxCell id="KuxwwfLe9ZElaLR2S34V-142" style="edgeStyle=none;rounded=0;orthogonalLoop=1;jettySize=auto;html=1;entryX=1;entryY=1;entryDx=0;entryDy=0;opacity=50;strokeColor=default;align=center;verticalAlign=middle;fontFamily=Helvetica;fontSize=11;fontColor=default;labelBackgroundColor=default;endArrow=none;endFill=0;" parent="1" source="KuxwwfLe9ZElaLR2S34V-121" target="KuxwwfLe9ZElaLR2S34V-101" edge="1">
          <mxGeometry relative="1" as="geometry" />
        </mxCell>
        <mxCell id="KuxwwfLe9ZElaLR2S34V-143" style="edgeStyle=none;rounded=0;orthogonalLoop=1;jettySize=auto;html=1;entryX=0.5;entryY=1;entryDx=0;entryDy=0;opacity=50;strokeColor=default;align=center;verticalAlign=middle;fontFamily=Helvetica;fontSize=11;fontColor=default;labelBackgroundColor=default;endArrow=none;endFill=0;" parent="1" source="KuxwwfLe9ZElaLR2S34V-121" target="KuxwwfLe9ZElaLR2S34V-105" edge="1">
          <mxGeometry relative="1" as="geometry" />
        </mxCell>
        <mxCell id="KuxwwfLe9ZElaLR2S34V-144" style="edgeStyle=none;rounded=0;orthogonalLoop=1;jettySize=auto;html=1;opacity=50;strokeColor=default;align=center;verticalAlign=middle;fontFamily=Helvetica;fontSize=11;fontColor=default;labelBackgroundColor=default;endArrow=none;endFill=0;" parent="1" source="KuxwwfLe9ZElaLR2S34V-121" edge="1">
          <mxGeometry relative="1" as="geometry">
            <mxPoint x="250" y="547.5" as="targetPoint" />
          </mxGeometry>
        </mxCell>
        <mxCell id="KuxwwfLe9ZElaLR2S34V-121" value="4" style="ellipse;whiteSpace=wrap;html=1;aspect=fixed;opacity=70;fillColor=#FFF2CC;" parent="1" vertex="1">
          <mxGeometry x="160" y="577.5" width="15" height="15" as="geometry" />
        </mxCell>
        <mxCell id="KuxwwfLe9ZElaLR2S34V-145" style="edgeStyle=none;rounded=0;orthogonalLoop=1;jettySize=auto;html=1;entryX=1;entryY=1;entryDx=0;entryDy=0;opacity=50;strokeColor=default;align=center;verticalAlign=middle;fontFamily=Helvetica;fontSize=11;fontColor=default;labelBackgroundColor=default;endArrow=none;endFill=0;" parent="1" source="KuxwwfLe9ZElaLR2S34V-122" target="KuxwwfLe9ZElaLR2S34V-101" edge="1">
          <mxGeometry relative="1" as="geometry" />
        </mxCell>
        <mxCell id="KuxwwfLe9ZElaLR2S34V-146" style="edgeStyle=none;rounded=0;orthogonalLoop=1;jettySize=auto;html=1;entryX=0.5;entryY=1;entryDx=0;entryDy=0;opacity=50;strokeColor=default;align=center;verticalAlign=middle;fontFamily=Helvetica;fontSize=11;fontColor=default;labelBackgroundColor=default;endArrow=none;endFill=0;" parent="1" source="KuxwwfLe9ZElaLR2S34V-122" target="KuxwwfLe9ZElaLR2S34V-107" edge="1">
          <mxGeometry relative="1" as="geometry" />
        </mxCell>
        <mxCell id="KuxwwfLe9ZElaLR2S34V-147" style="edgeStyle=none;rounded=0;orthogonalLoop=1;jettySize=auto;html=1;entryX=0.5;entryY=1;entryDx=0;entryDy=0;opacity=50;strokeColor=default;align=center;verticalAlign=middle;fontFamily=Helvetica;fontSize=11;fontColor=default;labelBackgroundColor=default;endArrow=none;endFill=0;" parent="1" source="KuxwwfLe9ZElaLR2S34V-122" target="KuxwwfLe9ZElaLR2S34V-109" edge="1">
          <mxGeometry relative="1" as="geometry" />
        </mxCell>
        <mxCell id="KuxwwfLe9ZElaLR2S34V-148" style="edgeStyle=none;rounded=0;orthogonalLoop=1;jettySize=auto;html=1;entryX=0;entryY=1;entryDx=0;entryDy=0;opacity=50;strokeColor=default;align=center;verticalAlign=middle;fontFamily=Helvetica;fontSize=11;fontColor=default;labelBackgroundColor=default;endArrow=none;endFill=0;" parent="1" source="KuxwwfLe9ZElaLR2S34V-122" target="KuxwwfLe9ZElaLR2S34V-112" edge="1">
          <mxGeometry relative="1" as="geometry" />
        </mxCell>
        <mxCell id="KuxwwfLe9ZElaLR2S34V-149" style="edgeStyle=none;rounded=0;orthogonalLoop=1;jettySize=auto;html=1;entryX=0;entryY=1;entryDx=0;entryDy=0;opacity=50;strokeColor=default;align=center;verticalAlign=middle;fontFamily=Helvetica;fontSize=11;fontColor=default;labelBackgroundColor=default;endArrow=none;endFill=0;" parent="1" source="KuxwwfLe9ZElaLR2S34V-122" target="KuxwwfLe9ZElaLR2S34V-113" edge="1">
          <mxGeometry relative="1" as="geometry" />
        </mxCell>
        <mxCell id="KuxwwfLe9ZElaLR2S34V-122" value="5" style="ellipse;whiteSpace=wrap;html=1;aspect=fixed;opacity=70;fillColor=#FFF2CC;" parent="1" vertex="1">
          <mxGeometry x="190" y="577.5" width="15" height="15" as="geometry" />
        </mxCell>
        <mxCell id="KuxwwfLe9ZElaLR2S34V-151" style="edgeStyle=none;rounded=0;orthogonalLoop=1;jettySize=auto;html=1;entryX=1;entryY=1;entryDx=0;entryDy=0;opacity=50;strokeColor=default;align=center;verticalAlign=middle;fontFamily=Helvetica;fontSize=11;fontColor=default;labelBackgroundColor=default;endArrow=none;endFill=0;" parent="1" source="KuxwwfLe9ZElaLR2S34V-123" target="KuxwwfLe9ZElaLR2S34V-101" edge="1">
          <mxGeometry relative="1" as="geometry" />
        </mxCell>
        <mxCell id="KuxwwfLe9ZElaLR2S34V-152" style="edgeStyle=none;rounded=0;orthogonalLoop=1;jettySize=auto;html=1;entryX=0.5;entryY=1;entryDx=0;entryDy=0;opacity=50;strokeColor=default;align=center;verticalAlign=middle;fontFamily=Helvetica;fontSize=11;fontColor=default;labelBackgroundColor=default;endArrow=none;endFill=0;" parent="1" source="KuxwwfLe9ZElaLR2S34V-123" target="KuxwwfLe9ZElaLR2S34V-107" edge="1">
          <mxGeometry relative="1" as="geometry" />
        </mxCell>
        <mxCell id="KuxwwfLe9ZElaLR2S34V-153" style="edgeStyle=none;rounded=0;orthogonalLoop=1;jettySize=auto;html=1;opacity=50;strokeColor=default;align=center;verticalAlign=middle;fontFamily=Helvetica;fontSize=11;fontColor=default;labelBackgroundColor=default;endArrow=none;endFill=0;entryX=0.5;entryY=1;entryDx=0;entryDy=0;" parent="1" source="KuxwwfLe9ZElaLR2S34V-123" target="KuxwwfLe9ZElaLR2S34V-109" edge="1">
          <mxGeometry relative="1" as="geometry">
            <mxPoint x="228" y="557.5" as="targetPoint" />
          </mxGeometry>
        </mxCell>
        <mxCell id="KuxwwfLe9ZElaLR2S34V-154" style="edgeStyle=none;rounded=0;orthogonalLoop=1;jettySize=auto;html=1;entryX=0;entryY=1;entryDx=0;entryDy=0;opacity=50;strokeColor=default;align=center;verticalAlign=middle;fontFamily=Helvetica;fontSize=11;fontColor=default;labelBackgroundColor=default;endArrow=none;endFill=0;" parent="1" source="KuxwwfLe9ZElaLR2S34V-123" target="KuxwwfLe9ZElaLR2S34V-112" edge="1">
          <mxGeometry relative="1" as="geometry" />
        </mxCell>
        <mxCell id="KuxwwfLe9ZElaLR2S34V-156" style="edgeStyle=none;rounded=0;orthogonalLoop=1;jettySize=auto;html=1;entryX=0;entryY=1;entryDx=0;entryDy=0;opacity=50;strokeColor=default;align=center;verticalAlign=middle;fontFamily=Helvetica;fontSize=11;fontColor=default;labelBackgroundColor=default;endArrow=none;endFill=0;" parent="1" source="KuxwwfLe9ZElaLR2S34V-123" target="KuxwwfLe9ZElaLR2S34V-113" edge="1">
          <mxGeometry relative="1" as="geometry" />
        </mxCell>
        <mxCell id="KuxwwfLe9ZElaLR2S34V-123" value="6" style="ellipse;whiteSpace=wrap;html=1;aspect=fixed;opacity=70;fillColor=#FFF2CC;" parent="1" vertex="1">
          <mxGeometry x="220" y="577.5" width="15" height="15" as="geometry" />
        </mxCell>
        <mxCell id="KuxwwfLe9ZElaLR2S34V-158" style="edgeStyle=none;rounded=0;orthogonalLoop=1;jettySize=auto;html=1;entryX=0.5;entryY=1;entryDx=0;entryDy=0;opacity=50;strokeColor=default;align=center;verticalAlign=middle;fontFamily=Helvetica;fontSize=11;fontColor=default;labelBackgroundColor=default;endArrow=none;endFill=0;" parent="1" source="KuxwwfLe9ZElaLR2S34V-124" target="KuxwwfLe9ZElaLR2S34V-105" edge="1">
          <mxGeometry relative="1" as="geometry" />
        </mxCell>
        <mxCell id="KuxwwfLe9ZElaLR2S34V-159" style="edgeStyle=none;rounded=0;orthogonalLoop=1;jettySize=auto;html=1;entryX=0.5;entryY=1;entryDx=0;entryDy=0;opacity=50;strokeColor=default;align=center;verticalAlign=middle;fontFamily=Helvetica;fontSize=11;fontColor=default;labelBackgroundColor=default;endArrow=none;endFill=0;" parent="1" source="KuxwwfLe9ZElaLR2S34V-124" target="KuxwwfLe9ZElaLR2S34V-107" edge="1">
          <mxGeometry relative="1" as="geometry" />
        </mxCell>
        <mxCell id="KuxwwfLe9ZElaLR2S34V-160" style="edgeStyle=none;rounded=0;orthogonalLoop=1;jettySize=auto;html=1;opacity=50;strokeColor=default;align=center;verticalAlign=middle;fontFamily=Helvetica;fontSize=11;fontColor=default;labelBackgroundColor=default;endArrow=none;endFill=0;entryX=0.5;entryY=1;entryDx=0;entryDy=0;" parent="1" source="KuxwwfLe9ZElaLR2S34V-124" target="KuxwwfLe9ZElaLR2S34V-109" edge="1">
          <mxGeometry relative="1" as="geometry">
            <mxPoint x="230" y="557.5" as="targetPoint" />
          </mxGeometry>
        </mxCell>
        <mxCell id="KuxwwfLe9ZElaLR2S34V-161" style="edgeStyle=none;rounded=0;orthogonalLoop=1;jettySize=auto;html=1;opacity=50;strokeColor=default;align=center;verticalAlign=middle;fontFamily=Helvetica;fontSize=11;fontColor=default;labelBackgroundColor=default;endArrow=none;endFill=0;entryX=0.5;entryY=1;entryDx=0;entryDy=0;" parent="1" source="KuxwwfLe9ZElaLR2S34V-124" target="KuxwwfLe9ZElaLR2S34V-112" edge="1">
          <mxGeometry relative="1" as="geometry">
            <mxPoint x="257.5" y="557.5" as="targetPoint" />
          </mxGeometry>
        </mxCell>
        <mxCell id="KuxwwfLe9ZElaLR2S34V-162" style="edgeStyle=none;rounded=0;orthogonalLoop=1;jettySize=auto;html=1;entryX=0;entryY=1;entryDx=0;entryDy=0;opacity=50;strokeColor=default;align=center;verticalAlign=middle;fontFamily=Helvetica;fontSize=11;fontColor=default;labelBackgroundColor=default;endArrow=none;endFill=0;" parent="1" source="KuxwwfLe9ZElaLR2S34V-124" target="KuxwwfLe9ZElaLR2S34V-113" edge="1">
          <mxGeometry relative="1" as="geometry" />
        </mxCell>
        <mxCell id="KuxwwfLe9ZElaLR2S34V-124" value="7" style="ellipse;whiteSpace=wrap;html=1;aspect=fixed;opacity=70;fillColor=#FFF2CC;" parent="1" vertex="1">
          <mxGeometry x="250" y="577.5" width="15" height="15" as="geometry" />
        </mxCell>
        <mxCell id="KuxwwfLe9ZElaLR2S34V-163" style="edgeStyle=none;rounded=0;orthogonalLoop=1;jettySize=auto;html=1;entryX=0.5;entryY=1;entryDx=0;entryDy=0;opacity=50;strokeColor=default;align=center;verticalAlign=middle;fontFamily=Helvetica;fontSize=11;fontColor=default;labelBackgroundColor=default;endArrow=none;endFill=0;" parent="1" source="KuxwwfLe9ZElaLR2S34V-125" target="KuxwwfLe9ZElaLR2S34V-107" edge="1">
          <mxGeometry relative="1" as="geometry" />
        </mxCell>
        <mxCell id="KuxwwfLe9ZElaLR2S34V-164" style="edgeStyle=none;rounded=0;orthogonalLoop=1;jettySize=auto;html=1;opacity=50;strokeColor=default;align=center;verticalAlign=middle;fontFamily=Helvetica;fontSize=11;fontColor=default;labelBackgroundColor=default;endArrow=none;endFill=0;entryX=0.5;entryY=1;entryDx=0;entryDy=0;" parent="1" source="KuxwwfLe9ZElaLR2S34V-125" target="KuxwwfLe9ZElaLR2S34V-109" edge="1">
          <mxGeometry relative="1" as="geometry">
            <mxPoint x="230" y="557.5" as="targetPoint" />
          </mxGeometry>
        </mxCell>
        <mxCell id="KuxwwfLe9ZElaLR2S34V-165" style="edgeStyle=none;rounded=0;orthogonalLoop=1;jettySize=auto;html=1;opacity=50;strokeColor=default;align=center;verticalAlign=middle;fontFamily=Helvetica;fontSize=11;fontColor=default;labelBackgroundColor=default;endArrow=none;endFill=0;entryX=0;entryY=1;entryDx=0;entryDy=0;" parent="1" source="KuxwwfLe9ZElaLR2S34V-125" target="KuxwwfLe9ZElaLR2S34V-112" edge="1">
          <mxGeometry relative="1" as="geometry">
            <mxPoint x="260" y="557.5" as="targetPoint" />
          </mxGeometry>
        </mxCell>
        <mxCell id="KuxwwfLe9ZElaLR2S34V-166" style="edgeStyle=none;rounded=0;orthogonalLoop=1;jettySize=auto;html=1;entryX=0.5;entryY=1;entryDx=0;entryDy=0;opacity=50;strokeColor=default;align=center;verticalAlign=middle;fontFamily=Helvetica;fontSize=11;fontColor=default;labelBackgroundColor=default;endArrow=none;endFill=0;" parent="1" source="KuxwwfLe9ZElaLR2S34V-125" target="KuxwwfLe9ZElaLR2S34V-113" edge="1">
          <mxGeometry relative="1" as="geometry" />
        </mxCell>
        <mxCell id="KuxwwfLe9ZElaLR2S34V-125" value="8" style="ellipse;whiteSpace=wrap;html=1;aspect=fixed;opacity=70;fillColor=#FFF2CC;" parent="1" vertex="1">
          <mxGeometry x="280" y="577.5" width="15" height="15" as="geometry" />
        </mxCell>
        <mxCell id="KuxwwfLe9ZElaLR2S34V-167" style="edgeStyle=none;rounded=0;orthogonalLoop=1;jettySize=auto;html=1;opacity=50;strokeColor=default;align=center;verticalAlign=middle;fontFamily=Helvetica;fontSize=11;fontColor=default;labelBackgroundColor=default;endArrow=none;endFill=0;entryX=0;entryY=1;entryDx=0;entryDy=0;" parent="1" source="KuxwwfLe9ZElaLR2S34V-126" target="KuxwwfLe9ZElaLR2S34V-112" edge="1">
          <mxGeometry relative="1" as="geometry">
            <mxPoint x="290" y="557.5" as="targetPoint" />
          </mxGeometry>
        </mxCell>
        <mxCell id="KuxwwfLe9ZElaLR2S34V-168" style="edgeStyle=none;rounded=0;orthogonalLoop=1;jettySize=auto;html=1;entryX=0.5;entryY=1;entryDx=0;entryDy=0;opacity=50;strokeColor=default;align=center;verticalAlign=middle;fontFamily=Helvetica;fontSize=11;fontColor=default;labelBackgroundColor=default;endArrow=none;endFill=0;" parent="1" source="KuxwwfLe9ZElaLR2S34V-126" target="KuxwwfLe9ZElaLR2S34V-114" edge="1">
          <mxGeometry relative="1" as="geometry" />
        </mxCell>
        <mxCell id="KuxwwfLe9ZElaLR2S34V-126" value="9" style="ellipse;whiteSpace=wrap;html=1;aspect=fixed;opacity=70;fillColor=#FFF2CC;" parent="1" vertex="1">
          <mxGeometry x="310" y="577.5" width="15" height="15" as="geometry" />
        </mxCell>
        <mxCell id="KuxwwfLe9ZElaLR2S34V-150" style="edgeStyle=none;rounded=0;orthogonalLoop=1;jettySize=auto;html=1;exitX=0;exitY=0;exitDx=0;exitDy=0;entryX=0.5;entryY=0;entryDx=0;entryDy=0;opacity=50;strokeColor=default;align=center;verticalAlign=middle;fontFamily=Helvetica;fontSize=11;fontColor=default;labelBackgroundColor=default;endArrow=none;endFill=0;" parent="1" source="KuxwwfLe9ZElaLR2S34V-123" target="KuxwwfLe9ZElaLR2S34V-123" edge="1">
          <mxGeometry relative="1" as="geometry" />
        </mxCell>
        <mxCell id="KuxwwfLe9ZElaLR2S34V-216" style="edgeStyle=none;rounded=0;orthogonalLoop=1;jettySize=auto;html=1;entryX=0.5;entryY=0;entryDx=0;entryDy=0;strokeColor=default;align=center;verticalAlign=middle;fontFamily=Helvetica;fontSize=11;fontColor=default;labelBackgroundColor=default;endArrow=none;endFill=0;opacity=50;" parent="1" source="KuxwwfLe9ZElaLR2S34V-221" target="KuxwwfLe9ZElaLR2S34V-245" edge="1">
          <mxGeometry relative="1" as="geometry" />
        </mxCell>
        <mxCell id="KuxwwfLe9ZElaLR2S34V-221" value="2" style="ellipse;whiteSpace=wrap;html=1;aspect=fixed;opacity=70;fillColor=#FFB570;" parent="1" vertex="1">
          <mxGeometry x="80" y="846" width="15" height="15" as="geometry" />
        </mxCell>
        <mxCell id="KuxwwfLe9ZElaLR2S34V-227" value="4" style="ellipse;whiteSpace=wrap;html=1;aspect=fixed;opacity=70;fillColor=#FFB570;" parent="1" vertex="1">
          <mxGeometry x="140" y="846" width="15" height="15" as="geometry" />
        </mxCell>
        <mxCell id="KuxwwfLe9ZElaLR2S34V-231" value="5" style="ellipse;whiteSpace=wrap;html=1;aspect=fixed;opacity=70;fillColor=#FFB570;" parent="1" vertex="1">
          <mxGeometry x="170" y="846" width="15" height="15" as="geometry" />
        </mxCell>
        <mxCell id="KuxwwfLe9ZElaLR2S34V-235" value="6" style="ellipse;whiteSpace=wrap;html=1;aspect=fixed;opacity=70;fillColor=#FFB570;" parent="1" vertex="1">
          <mxGeometry x="200" y="846" width="15" height="15" as="geometry" />
        </mxCell>
        <mxCell id="KuxwwfLe9ZElaLR2S34V-238" style="edgeStyle=none;rounded=0;orthogonalLoop=1;jettySize=auto;html=1;entryX=0.5;entryY=0;entryDx=0;entryDy=0;strokeColor=default;align=center;verticalAlign=middle;fontFamily=Helvetica;fontSize=11;fontColor=default;labelBackgroundColor=default;endArrow=none;endFill=0;opacity=50;exitX=0.5;exitY=1;exitDx=0;exitDy=0;" parent="1" source="KuxwwfLe9ZElaLR2S34V-239" target="KuxwwfLe9ZElaLR2S34V-253" edge="1">
          <mxGeometry relative="1" as="geometry" />
        </mxCell>
        <mxCell id="KuxwwfLe9ZElaLR2S34V-239" value="7" style="ellipse;whiteSpace=wrap;html=1;aspect=fixed;opacity=70;fillColor=#FFB570;" parent="1" vertex="1">
          <mxGeometry x="230" y="846" width="15" height="15" as="geometry" />
        </mxCell>
        <mxCell id="KuxwwfLe9ZElaLR2S34V-258" style="edgeStyle=none;rounded=0;orthogonalLoop=1;jettySize=auto;html=1;entryX=0.5;entryY=1;entryDx=0;entryDy=0;opacity=50;strokeColor=default;align=center;verticalAlign=middle;fontFamily=Helvetica;fontSize=11;fontColor=default;labelBackgroundColor=default;endArrow=none;endFill=0;exitX=0.5;exitY=0;exitDx=0;exitDy=0;" parent="1" source="KuxwwfLe9ZElaLR2S34V-245" target="KuxwwfLe9ZElaLR2S34V-227" edge="1">
          <mxGeometry relative="1" as="geometry" />
        </mxCell>
        <mxCell id="KuxwwfLe9ZElaLR2S34V-259" style="edgeStyle=none;rounded=0;orthogonalLoop=1;jettySize=auto;html=1;entryX=0.5;entryY=1;entryDx=0;entryDy=0;opacity=50;strokeColor=default;align=center;verticalAlign=middle;fontFamily=Helvetica;fontSize=11;fontColor=default;labelBackgroundColor=default;endArrow=none;endFill=0;exitX=0.5;exitY=0;exitDx=0;exitDy=0;" parent="1" source="KuxwwfLe9ZElaLR2S34V-245" target="KuxwwfLe9ZElaLR2S34V-231" edge="1">
          <mxGeometry relative="1" as="geometry" />
        </mxCell>
        <mxCell id="KuxwwfLe9ZElaLR2S34V-260" style="edgeStyle=none;rounded=0;orthogonalLoop=1;jettySize=auto;html=1;entryX=0.5;entryY=1;entryDx=0;entryDy=0;opacity=50;strokeColor=default;align=center;verticalAlign=middle;fontFamily=Helvetica;fontSize=11;fontColor=default;labelBackgroundColor=default;endArrow=none;endFill=0;" parent="1" target="KuxwwfLe9ZElaLR2S34V-235" edge="1">
          <mxGeometry relative="1" as="geometry">
            <mxPoint x="89.99676204700933" y="885.9975301207976" as="sourcePoint" />
            <mxPoint x="202.75" y="855.4300000000001" as="targetPoint" />
          </mxGeometry>
        </mxCell>
        <mxCell id="KuxwwfLe9ZElaLR2S34V-245" value="2" style="ellipse;whiteSpace=wrap;html=1;aspect=fixed;opacity=70;fillColor=#FFD966;" parent="1" vertex="1">
          <mxGeometry x="80" y="886" width="15" height="15" as="geometry" />
        </mxCell>
        <mxCell id="KuxwwfLe9ZElaLR2S34V-250" style="edgeStyle=none;rounded=0;orthogonalLoop=1;jettySize=auto;html=1;entryX=0.5;entryY=0;entryDx=0;entryDy=0;strokeColor=default;align=center;verticalAlign=middle;fontFamily=Helvetica;fontSize=11;fontColor=default;labelBackgroundColor=default;endArrow=none;endFill=0;opacity=50;" parent="1" source="KuxwwfLe9ZElaLR2S34V-251" target="KuxwwfLe9ZElaLR2S34V-254" edge="1">
          <mxGeometry relative="1" as="geometry" />
        </mxCell>
        <mxCell id="KuxwwfLe9ZElaLR2S34V-261" style="edgeStyle=none;rounded=0;orthogonalLoop=1;jettySize=auto;html=1;entryX=0.5;entryY=1;entryDx=0;entryDy=0;opacity=50;strokeColor=default;align=center;verticalAlign=middle;fontFamily=Helvetica;fontSize=11;fontColor=default;labelBackgroundColor=default;endArrow=none;endFill=0;" parent="1" source="KuxwwfLe9ZElaLR2S34V-251" target="KuxwwfLe9ZElaLR2S34V-221" edge="1">
          <mxGeometry relative="1" as="geometry" />
        </mxCell>
        <mxCell id="KuxwwfLe9ZElaLR2S34V-262" style="edgeStyle=none;rounded=0;orthogonalLoop=1;jettySize=auto;html=1;entryX=0.5;entryY=1;entryDx=0;entryDy=0;opacity=50;strokeColor=default;align=center;verticalAlign=middle;fontFamily=Helvetica;fontSize=11;fontColor=default;labelBackgroundColor=default;endArrow=none;endFill=0;" parent="1" source="KuxwwfLe9ZElaLR2S34V-251" target="KuxwwfLe9ZElaLR2S34V-231" edge="1">
          <mxGeometry relative="1" as="geometry" />
        </mxCell>
        <mxCell id="KuxwwfLe9ZElaLR2S34V-263" style="edgeStyle=none;rounded=0;orthogonalLoop=1;jettySize=auto;html=1;entryX=0.5;entryY=1;entryDx=0;entryDy=0;opacity=50;strokeColor=default;align=center;verticalAlign=middle;fontFamily=Helvetica;fontSize=11;fontColor=default;labelBackgroundColor=default;endArrow=none;endFill=0;" parent="1" source="KuxwwfLe9ZElaLR2S34V-251" target="KuxwwfLe9ZElaLR2S34V-235" edge="1">
          <mxGeometry relative="1" as="geometry" />
        </mxCell>
        <mxCell id="KuxwwfLe9ZElaLR2S34V-264" style="edgeStyle=none;rounded=0;orthogonalLoop=1;jettySize=auto;html=1;entryX=0.5;entryY=1;entryDx=0;entryDy=0;opacity=50;strokeColor=default;align=center;verticalAlign=middle;fontFamily=Helvetica;fontSize=11;fontColor=default;labelBackgroundColor=default;endArrow=none;endFill=0;" parent="1" source="KuxwwfLe9ZElaLR2S34V-251" target="KuxwwfLe9ZElaLR2S34V-239" edge="1">
          <mxGeometry relative="1" as="geometry" />
        </mxCell>
        <mxCell id="KuxwwfLe9ZElaLR2S34V-251" value="5" style="ellipse;whiteSpace=wrap;html=1;aspect=fixed;opacity=70;fillColor=#FFD966;" parent="1" vertex="1">
          <mxGeometry x="170" y="886" width="15" height="15" as="geometry" />
        </mxCell>
        <mxCell id="KuxwwfLe9ZElaLR2S34V-253" value="6" style="ellipse;whiteSpace=wrap;html=1;aspect=fixed;opacity=70;fillColor=#FFD966;" parent="1" vertex="1">
          <mxGeometry x="200" y="886" width="15" height="15" as="geometry" />
        </mxCell>
        <mxCell id="KuxwwfLe9ZElaLR2S34V-257" style="edgeStyle=none;rounded=0;orthogonalLoop=1;jettySize=auto;html=1;entryX=0;entryY=1;entryDx=0;entryDy=0;opacity=50;strokeColor=default;align=center;verticalAlign=middle;fontFamily=Helvetica;fontSize=11;fontColor=default;labelBackgroundColor=default;endArrow=none;endFill=0;" parent="1" source="KuxwwfLe9ZElaLR2S34V-254" target="KuxwwfLe9ZElaLR2S34V-253" edge="1">
          <mxGeometry relative="1" as="geometry">
            <Array as="points">
              <mxPoint x="90" y="926" />
            </Array>
          </mxGeometry>
        </mxCell>
        <mxCell id="KuxwwfLe9ZElaLR2S34V-254" value="2" style="ellipse;whiteSpace=wrap;html=1;aspect=fixed;opacity=70;strokeColor=#B3B3B3;fillColor=#FFF2CC;" parent="1" vertex="1">
          <mxGeometry x="80" y="926" width="15" height="15" as="geometry" />
        </mxCell>
        <mxCell id="KuxwwfLe9ZElaLR2S34V-255" style="edgeStyle=none;rounded=0;orthogonalLoop=1;jettySize=auto;html=1;entryX=0.5;entryY=0;entryDx=0;entryDy=0;strokeColor=default;align=center;verticalAlign=middle;fontFamily=Helvetica;fontSize=11;fontColor=default;labelBackgroundColor=default;endArrow=none;endFill=0;opacity=50;" parent="1" source="KuxwwfLe9ZElaLR2S34V-245" target="KuxwwfLe9ZElaLR2S34V-254" edge="1">
          <mxGeometry relative="1" as="geometry" />
        </mxCell>
        <mxCell id="H5An6maERPsgCziN6ppM-448" style="edgeStyle=none;rounded=0;orthogonalLoop=1;jettySize=auto;html=1;entryX=0.5;entryY=0;entryDx=0;entryDy=0;strokeColor=default;align=center;verticalAlign=middle;fontFamily=Helvetica;fontSize=11;fontColor=default;labelBackgroundColor=default;endArrow=none;endFill=0;" parent="1" source="H5An6maERPsgCziN6ppM-451" target="H5An6maERPsgCziN6ppM-465" edge="1">
          <mxGeometry relative="1" as="geometry" />
        </mxCell>
        <mxCell id="H5An6maERPsgCziN6ppM-449" style="edgeStyle=none;rounded=0;orthogonalLoop=1;jettySize=auto;html=1;entryX=0.5;entryY=0;entryDx=0;entryDy=0;strokeColor=default;align=center;verticalAlign=middle;fontFamily=Helvetica;fontSize=11;fontColor=default;labelBackgroundColor=default;endArrow=none;endFill=0;" parent="1" source="H5An6maERPsgCziN6ppM-451" target="H5An6maERPsgCziN6ppM-467" edge="1">
          <mxGeometry relative="1" as="geometry" />
        </mxCell>
        <mxCell id="H5An6maERPsgCziN6ppM-450" style="edgeStyle=none;rounded=0;orthogonalLoop=1;jettySize=auto;html=1;entryX=0;entryY=0.5;entryDx=0;entryDy=0;strokeColor=default;align=center;verticalAlign=middle;fontFamily=Helvetica;fontSize=11;fontColor=default;labelBackgroundColor=default;endArrow=none;endFill=0;" parent="1" source="H5An6maERPsgCziN6ppM-451" target="H5An6maERPsgCziN6ppM-462" edge="1">
          <mxGeometry relative="1" as="geometry" />
        </mxCell>
        <mxCell id="H5An6maERPsgCziN6ppM-451" value="2" style="ellipse;whiteSpace=wrap;html=1;aspect=fixed;fillColor=#FFB366;" parent="1" vertex="1">
          <mxGeometry x="376.25" y="542.5" width="15" height="15" as="geometry" />
        </mxCell>
        <mxCell id="H5An6maERPsgCziN6ppM-452" style="edgeStyle=none;rounded=0;orthogonalLoop=1;jettySize=auto;html=1;entryX=1;entryY=0;entryDx=0;entryDy=0;strokeColor=default;align=center;verticalAlign=middle;fontFamily=Helvetica;fontSize=11;fontColor=default;labelBackgroundColor=default;endArrow=none;endFill=0;" parent="1" source="H5An6maERPsgCziN6ppM-454" target="H5An6maERPsgCziN6ppM-451" edge="1">
          <mxGeometry relative="1" as="geometry" />
        </mxCell>
        <mxCell id="H5An6maERPsgCziN6ppM-453" style="edgeStyle=none;rounded=0;orthogonalLoop=1;jettySize=auto;html=1;entryX=0.5;entryY=0;entryDx=0;entryDy=0;strokeColor=default;align=center;verticalAlign=middle;fontFamily=Helvetica;fontSize=11;fontColor=default;labelBackgroundColor=default;endArrow=none;endFill=0;" parent="1" source="H5An6maERPsgCziN6ppM-454" target="H5An6maERPsgCziN6ppM-459" edge="1">
          <mxGeometry relative="1" as="geometry" />
        </mxCell>
        <mxCell id="H5An6maERPsgCziN6ppM-454" value="4" style="ellipse;whiteSpace=wrap;html=1;aspect=fixed;" parent="1" vertex="1">
          <mxGeometry x="401.25" y="512.5" width="15" height="15" as="geometry" />
        </mxCell>
        <mxCell id="H5An6maERPsgCziN6ppM-455" style="edgeStyle=none;rounded=0;orthogonalLoop=1;jettySize=auto;html=1;strokeColor=default;align=center;verticalAlign=middle;fontFamily=Helvetica;fontSize=11;fontColor=default;labelBackgroundColor=default;endArrow=none;endFill=0;" parent="1" source="H5An6maERPsgCziN6ppM-459" target="H5An6maERPsgCziN6ppM-462" edge="1">
          <mxGeometry relative="1" as="geometry" />
        </mxCell>
        <mxCell id="H5An6maERPsgCziN6ppM-456" style="edgeStyle=none;rounded=0;orthogonalLoop=1;jettySize=auto;html=1;entryX=0.5;entryY=0;entryDx=0;entryDy=0;strokeColor=default;align=center;verticalAlign=middle;fontFamily=Helvetica;fontSize=11;fontColor=default;labelBackgroundColor=default;endArrow=none;endFill=0;" parent="1" source="H5An6maERPsgCziN6ppM-459" target="H5An6maERPsgCziN6ppM-468" edge="1">
          <mxGeometry relative="1" as="geometry" />
        </mxCell>
        <mxCell id="H5An6maERPsgCziN6ppM-457" style="edgeStyle=none;rounded=0;orthogonalLoop=1;jettySize=auto;html=1;entryX=0;entryY=1;entryDx=0;entryDy=0;strokeColor=default;align=center;verticalAlign=middle;fontFamily=Helvetica;fontSize=11;fontColor=default;labelBackgroundColor=default;endArrow=none;endFill=0;" parent="1" source="H5An6maERPsgCziN6ppM-459" target="H5An6maERPsgCziN6ppM-469" edge="1">
          <mxGeometry relative="1" as="geometry" />
        </mxCell>
        <mxCell id="H5An6maERPsgCziN6ppM-458" style="edgeStyle=none;rounded=0;orthogonalLoop=1;jettySize=auto;html=1;entryX=1;entryY=0;entryDx=0;entryDy=0;strokeColor=default;align=center;verticalAlign=middle;fontFamily=Helvetica;fontSize=11;fontColor=default;labelBackgroundColor=default;endArrow=none;endFill=0;" parent="1" source="H5An6maERPsgCziN6ppM-459" target="H5An6maERPsgCziN6ppM-467" edge="1">
          <mxGeometry relative="1" as="geometry" />
        </mxCell>
        <mxCell id="H5An6maERPsgCziN6ppM-459" value="7" style="ellipse;whiteSpace=wrap;html=1;aspect=fixed;" parent="1" vertex="1">
          <mxGeometry x="436.25" y="527.5" width="15" height="15" as="geometry" />
        </mxCell>
        <mxCell id="H5An6maERPsgCziN6ppM-460" style="edgeStyle=none;rounded=0;orthogonalLoop=1;jettySize=auto;html=1;entryX=1;entryY=0;entryDx=0;entryDy=0;strokeColor=default;align=center;verticalAlign=middle;fontFamily=Helvetica;fontSize=11;fontColor=default;labelBackgroundColor=default;endArrow=none;endFill=0;" parent="1" source="H5An6maERPsgCziN6ppM-462" target="H5An6maERPsgCziN6ppM-467" edge="1">
          <mxGeometry relative="1" as="geometry" />
        </mxCell>
        <mxCell id="H5An6maERPsgCziN6ppM-461" style="edgeStyle=none;rounded=0;orthogonalLoop=1;jettySize=auto;html=1;entryX=0;entryY=0;entryDx=0;entryDy=0;strokeColor=default;align=center;verticalAlign=middle;fontFamily=Helvetica;fontSize=11;fontColor=default;labelBackgroundColor=default;endArrow=none;endFill=0;" parent="1" source="H5An6maERPsgCziN6ppM-462" target="H5An6maERPsgCziN6ppM-468" edge="1">
          <mxGeometry relative="1" as="geometry" />
        </mxCell>
        <mxCell id="H5An6maERPsgCziN6ppM-462" value="5" style="ellipse;whiteSpace=wrap;html=1;aspect=fixed;" parent="1" vertex="1">
          <mxGeometry x="406.25" y="542.5" width="15" height="15" as="geometry" />
        </mxCell>
        <mxCell id="H5An6maERPsgCziN6ppM-463" style="edgeStyle=none;rounded=0;orthogonalLoop=1;jettySize=auto;html=1;strokeColor=default;align=center;verticalAlign=middle;fontFamily=Helvetica;fontSize=11;fontColor=default;labelBackgroundColor=default;endArrow=none;endFill=0;" parent="1" source="H5An6maERPsgCziN6ppM-464" target="H5An6maERPsgCziN6ppM-451" edge="1">
          <mxGeometry relative="1" as="geometry" />
        </mxCell>
        <mxCell id="H5An6maERPsgCziN6ppM-464" value="1" style="ellipse;whiteSpace=wrap;html=1;aspect=fixed;" parent="1" vertex="1">
          <mxGeometry x="361.25" y="512.5" width="15" height="15" as="geometry" />
        </mxCell>
        <mxCell id="H5An6maERPsgCziN6ppM-465" value="3" style="ellipse;whiteSpace=wrap;html=1;aspect=fixed;" parent="1" vertex="1">
          <mxGeometry x="356.25" y="567.5" width="15" height="15" as="geometry" />
        </mxCell>
        <mxCell id="H5An6maERPsgCziN6ppM-466" style="edgeStyle=none;rounded=0;orthogonalLoop=1;jettySize=auto;html=1;entryX=0;entryY=0.5;entryDx=0;entryDy=0;strokeColor=default;align=center;verticalAlign=middle;fontFamily=Helvetica;fontSize=11;fontColor=default;labelBackgroundColor=default;endArrow=none;endFill=0;" parent="1" source="H5An6maERPsgCziN6ppM-467" target="H5An6maERPsgCziN6ppM-468" edge="1">
          <mxGeometry relative="1" as="geometry" />
        </mxCell>
        <mxCell id="H5An6maERPsgCziN6ppM-467" value="6" style="ellipse;whiteSpace=wrap;html=1;aspect=fixed;" parent="1" vertex="1">
          <mxGeometry x="391.25" y="577.5" width="15" height="15" as="geometry" />
        </mxCell>
        <mxCell id="H5An6maERPsgCziN6ppM-468" value="8" style="ellipse;whiteSpace=wrap;html=1;aspect=fixed;" parent="1" vertex="1">
          <mxGeometry x="451.25" y="562.5" width="15" height="15" as="geometry" />
        </mxCell>
        <mxCell id="H5An6maERPsgCziN6ppM-469" value="9" style="ellipse;whiteSpace=wrap;html=1;aspect=fixed;" parent="1" vertex="1">
          <mxGeometry x="466.25" y="512.5" width="15" height="15" as="geometry" />
        </mxCell>
      </root>
    </mxGraphModel>
  </diagram>
</mxfile>
